M48
; DRILL file {KiCad 8.0.6} date 2025-01-30T17:26:38+1100
; FORMAT={-:-/ absolute / inch / decimal}
; #@! TF.CreationDate,2025-01-30T17:26:38+11:00
; #@! TF.GenerationSoftware,Kicad,Pcbnew,8.0.6
; #@! TF.FileFunction,Plated,1,2,PTH
FMAT,2
INCH
; #@! TA.AperFunction,Plated,PTH,ViaDrill
T1C0.0118
; #@! TA.AperFunction,Plated,PTH,ComponentDrill
T2C0.0236
; #@! TA.AperFunction,Plated,PTH,ComponentDrill
T3C0.0256
; #@! TA.AperFunction,Plated,PTH,ComponentDrill
T4C0.0276
%
G90
G05
T1
X4.3898Y-4.6457
X4.3898Y-4.7244
X4.3898Y-4.8031
X4.3898Y-5.0197
X4.3898Y-5.0984
X4.3898Y-5.1772
X4.3898Y-5.2559
X4.3898Y-5.3346
X4.3898Y-5.4134
X4.3898Y-5.4921
X4.3898Y-5.5709
X4.3898Y-5.6496
X4.3898Y-5.7283
X4.3898Y-5.8071
X4.39Y-3.615
X4.39Y-3.6938
X4.39Y-3.7725
X4.39Y-3.8513
X4.39Y-3.93
X4.39Y-4.0087
X4.39Y-4.0875
X4.39Y-4.1662
X4.39Y-4.245
X4.39Y-4.3237
X4.39Y-4.4024
X4.39Y-4.4812
X4.6063Y-5.5709
X4.626Y-6.0433
X4.64Y-4.84
X4.65Y-5.42
X4.66Y-4.71
X4.68Y-5.02
X4.68Y-5.38
X4.7Y-4.75
X4.7047Y-6.0433
X4.7441Y-4.7441
X4.7835Y-5.0787
X4.8425Y-3.7008
X4.86Y-4.14
X4.86Y-4.22
X4.8622Y-4.7047
X4.88Y-4.8396
X4.89Y-3.64
X4.9Y-5.76
X4.9Y-5.82
X4.9016Y-6.0433
X4.9085Y-4.5406
X4.94Y-4.54
X4.9409Y-3.8976
X4.9409Y-3.9567
X4.9606Y-6.0433
X5.0Y-3.8386
X5.0Y-5.0
X5.0197Y-6.0433
X5.0591Y-5.0
X5.06Y-4.06
X5.0787Y-6.0433
X5.09Y-4.52
X5.09Y-4.68
X5.1181Y-4.06
X5.1181Y-5.0
X5.1378Y-6.0433
X5.1772Y-3.9567
X5.1772Y-4.0157
X5.18Y-5.68
X5.1969Y-6.0433
X5.2136Y-4.59
X5.24Y-3.75
X5.24Y-4.46
X5.26Y-3.82
X5.27Y-4.62
X5.29Y-3.74
X5.33Y-4.68
X5.3346Y-5.2559
X5.38Y-4.27
X5.39Y-4.49
X5.39Y-4.56
X5.41Y-5.27
X5.44Y-4.38
X5.44Y-5.62
X5.47Y-4.69
X5.48Y-4.49
X5.49Y-5.33
X5.51Y-4.4464
X5.52Y-4.9
X5.5205Y-4.9495
X5.55Y-4.98
X5.5512Y-3.6417
X5.57Y-4.47
X5.5897Y-5.4803
X5.6102Y-6.0433
X5.62Y-4.49
X5.635Y-4.655
X5.72Y-4.6
X5.74Y-4.42
X5.8465Y-5.0984
X5.8465Y-5.1772
X5.8465Y-5.2559
X5.8465Y-5.3346
X5.8465Y-5.4134
X5.8465Y-5.4921
X5.8465Y-5.5709
X5.8465Y-5.6496
X5.8465Y-5.7283
X5.8465Y-5.8071
X5.85Y-3.6125
X5.85Y-3.6913
X5.85Y-3.77
X5.85Y-3.8487
X5.85Y-4.085
X5.85Y-4.1637
X5.85Y-4.2424
X5.85Y-4.3212
X5.85Y-4.4001
X5.85Y-4.4788
X5.85Y-4.5576
X5.85Y-4.6363
X5.85Y-4.715
X5.85Y-4.7938
X5.85Y-4.8725
X5.85Y-4.9513
X5.85Y-5.03
T3
X4.5169Y-3.8976
X4.5169Y-3.9476
X4.5169Y-3.9976
X4.5169Y-4.0476
X4.5169Y-4.0976
X4.5169Y-4.1476
X4.5169Y-4.1976
X4.5169Y-4.2476
X4.5169Y-4.2976
X4.5169Y-4.3476
X4.5669Y-3.8976
X4.5669Y-3.9476
X4.5669Y-3.9976
X4.5669Y-4.0476
X4.5669Y-4.0976
X4.5669Y-4.1476
X4.5669Y-4.1976
X4.5669Y-4.2476
X4.5669Y-4.2976
X4.5669Y-4.3476
X5.698Y-3.8976
X5.698Y-3.9476
X5.698Y-3.9976
X5.698Y-4.0476
X5.698Y-4.0976
X5.698Y-4.1476
X5.698Y-4.1976
X5.698Y-4.2476
X5.698Y-4.2976
X5.698Y-4.3476
X5.748Y-3.8976
X5.748Y-3.9476
X5.748Y-3.9976
X5.748Y-4.0476
X5.748Y-4.0976
X5.748Y-4.1476
X5.748Y-4.1976
X5.748Y-4.2476
X5.748Y-4.2976
X5.748Y-4.3476
T4
X4.5346Y-4.6106
X4.5346Y-4.8382
T2
G00X4.4016Y-4.5543
M15
G01X4.378Y-4.5543
M16
G05
G00X4.4016Y-4.8945
M15
G01X4.378Y-4.8945
M16
G05
G00X4.5732Y-4.5543
M15
G01X4.5378Y-4.5543
M16
G05
G00X4.5732Y-4.8945
M15
G01X4.5378Y-4.8945
M16
G05
M30
