%TF.GenerationSoftware,KiCad,Pcbnew,8.0.6*%
%TF.CreationDate,2025-01-30T17:26:38+11:00*%
%TF.ProjectId,ESP32-DWM1000-local,45535033-322d-4445-974d-313030302d6c,rev?*%
%TF.SameCoordinates,Original*%
%TF.FileFunction,Copper,L2,Bot*%
%TF.FilePolarity,Positive*%
%FSLAX46Y46*%
G04 Gerber Fmt 4.6, Leading zero omitted, Abs format (unit mm)*
G04 Created by KiCad (PCBNEW 8.0.6) date 2025-01-30 17:26:38*
%MOMM*%
%LPD*%
G01*
G04 APERTURE LIST*
%TA.AperFunction,ComponentPad*%
%ADD10C,0.700000*%
%TD*%
%TA.AperFunction,ComponentPad*%
%ADD11O,2.000000X1.100000*%
%TD*%
%TA.AperFunction,ComponentPad*%
%ADD12O,1.800000X1.200000*%
%TD*%
%TA.AperFunction,ComponentPad*%
%ADD13R,1.000000X1.000000*%
%TD*%
%TA.AperFunction,ComponentPad*%
%ADD14O,1.000000X1.000000*%
%TD*%
%TA.AperFunction,ViaPad*%
%ADD15C,0.600000*%
%TD*%
%TA.AperFunction,Conductor*%
%ADD16C,0.200000*%
%TD*%
%TA.AperFunction,Conductor*%
%ADD17C,0.500000*%
%TD*%
G04 APERTURE END LIST*
D10*
%TO.P,USB1,*%
%TO.N,*%
X115180000Y-117110000D03*
X115180000Y-122890000D03*
D11*
%TO.P,USB1,13,SHELL*%
%TO.N,GND*%
X115710000Y-115680000D03*
D12*
X111500000Y-115680000D03*
D11*
%TO.P,USB1,14,SHELL*%
X115710000Y-124320000D03*
D12*
X111500000Y-124320000D03*
%TD*%
D13*
%TO.P,J2,1,Pin_1*%
%TO.N,IO41*%
X144730000Y-99000000D03*
D14*
%TO.P,J2,2,Pin_2*%
%TO.N,IO42*%
X146000000Y-99000000D03*
%TO.P,J2,3,Pin_3*%
%TO.N,IO40*%
X144730000Y-100270000D03*
%TO.P,J2,4,Pin_4*%
%TO.N,CP2102_TX*%
X146000000Y-100270000D03*
%TO.P,J2,5,Pin_5*%
%TO.N,IO39*%
X144730000Y-101540000D03*
%TO.P,J2,6,Pin_6*%
%TO.N,CP2102_RX*%
X146000000Y-101540000D03*
%TO.P,J2,7,Pin_7*%
%TO.N,IO38*%
X144730000Y-102810000D03*
%TO.P,J2,8,Pin_8*%
%TO.N,IO2*%
X146000000Y-102810000D03*
%TO.P,J2,9,Pin_9*%
%TO.N,IO37*%
X144730000Y-104080000D03*
%TO.P,J2,10,Pin_10*%
%TO.N,IO1*%
X146000000Y-104080000D03*
%TO.P,J2,11,Pin_11*%
%TO.N,IO36*%
X144730000Y-105350000D03*
%TO.P,J2,12,Pin_12*%
%TO.N,I2C_SDA*%
X146000000Y-105350000D03*
%TO.P,J2,13,Pin_13*%
%TO.N,IO35*%
X144730000Y-106620000D03*
%TO.P,J2,14,Pin_14*%
%TO.N,I2C_SCL*%
X146000000Y-106620000D03*
%TO.P,J2,15,Pin_15*%
%TO.N,IO0*%
X144730000Y-107890000D03*
%TO.P,J2,16,Pin_16*%
%TO.N,IO14*%
X146000000Y-107890000D03*
%TO.P,J2,17,Pin_17*%
%TO.N,IO45*%
X144730000Y-109160000D03*
%TO.P,J2,18,Pin_18*%
%TO.N,IO21*%
X146000000Y-109160000D03*
%TO.P,J2,19,Pin_19*%
%TO.N,GND*%
X144730000Y-110430000D03*
%TO.P,J2,20,Pin_20*%
%TO.N,CP2102_REGIN*%
X146000000Y-110430000D03*
%TD*%
D13*
%TO.P,J1,1,Pin_1*%
%TO.N,IO15*%
X114730000Y-99000000D03*
D14*
%TO.P,J1,2,Pin_2*%
%TO.N,IO16*%
X116000000Y-99000000D03*
%TO.P,J1,3,Pin_3*%
%TO.N,IO7*%
X114730000Y-100270000D03*
%TO.P,J1,4,Pin_4*%
%TO.N,IO17*%
X116000000Y-100270000D03*
%TO.P,J1,5,Pin_5*%
%TO.N,IO6*%
X114730000Y-101540000D03*
%TO.P,J1,6,Pin_6*%
%TO.N,IO18*%
X116000000Y-101540000D03*
%TO.P,J1,7,Pin_7*%
%TO.N,IO5*%
X114730000Y-102810000D03*
%TO.P,J1,8,Pin_8*%
%TO.N,IO8*%
X116000000Y-102810000D03*
%TO.P,J1,9,Pin_9*%
%TO.N,IO4*%
X114730000Y-104080000D03*
%TO.P,J1,10,Pin_10*%
%TO.N,IO19*%
X116000000Y-104080000D03*
%TO.P,J1,11,Pin_11*%
%TO.N,IO13*%
X114730000Y-105350000D03*
%TO.P,J1,12,Pin_12*%
%TO.N,IO20*%
X116000000Y-105350000D03*
%TO.P,J1,13,Pin_13*%
%TO.N,IO12*%
X114730000Y-106620000D03*
%TO.P,J1,14,Pin_14*%
%TO.N,IO3*%
X116000000Y-106620000D03*
%TO.P,J1,15,Pin_15*%
%TO.N,IO11*%
X114730000Y-107890000D03*
%TO.P,J1,16,Pin_16*%
%TO.N,IO46*%
X116000000Y-107890000D03*
%TO.P,J1,17,Pin_17*%
%TO.N,IO10*%
X114730000Y-109160000D03*
%TO.P,J1,18,Pin_18*%
%TO.N,IO9*%
X116000000Y-109160000D03*
%TO.P,J1,19,Pin_19*%
%TO.N,GND*%
X114730000Y-110430000D03*
%TO.P,J1,20,Pin_20*%
%TO.N,CP2102_REGIN*%
X116000000Y-110430000D03*
%TD*%
D15*
%TO.N,CP2102_RTS*%
X133858000Y-117348000D03*
X141979000Y-139199000D03*
%TO.N,CP2102_DTR*%
X137414000Y-133858000D03*
X132426000Y-116586000D03*
%TO.N,IO0*%
X139446000Y-135382000D03*
X136652000Y-108458000D03*
%TO.N,RESET*%
X133604000Y-97028000D03*
X138176000Y-142748000D03*
%TO.N,GND*%
X111506000Y-107822000D03*
X125500000Y-99000000D03*
X138938000Y-119126000D03*
X111506000Y-111822000D03*
X111506000Y-103822000D03*
X148590000Y-103758000D03*
X142500000Y-153500000D03*
X111506000Y-95822000D03*
X111506000Y-113822000D03*
X111500000Y-131500000D03*
X148590000Y-123762000D03*
X124206000Y-92456000D03*
X148590000Y-115762000D03*
X148500000Y-137500000D03*
X123500000Y-119500000D03*
X126000000Y-153500000D03*
X139192000Y-114046000D03*
X121500000Y-129000000D03*
X127000000Y-127000000D03*
X130000000Y-127000000D03*
X148590000Y-113762000D03*
X111500000Y-118000000D03*
X148590000Y-127762000D03*
X127500000Y-153500000D03*
X129000000Y-153500000D03*
X111500000Y-129500000D03*
X130500000Y-153500000D03*
X111500000Y-143500000D03*
X118872000Y-136652000D03*
X148590000Y-95758000D03*
X125500000Y-100500000D03*
X117000000Y-141500000D03*
X111506000Y-101822000D03*
X130000000Y-103124000D03*
X128524000Y-103124000D03*
X129286000Y-114808000D03*
X148590000Y-117762000D03*
X148500000Y-141500000D03*
X138176000Y-111252000D03*
X148590000Y-109758000D03*
X111500000Y-141500000D03*
X135382000Y-118872000D03*
X148500000Y-143500000D03*
X148590000Y-125762000D03*
X111500000Y-120000000D03*
X148500000Y-135500000D03*
X111506000Y-105822000D03*
X135500000Y-133500000D03*
X148500000Y-131500000D03*
X111506000Y-109822000D03*
X128500000Y-127000000D03*
X143129000Y-118237000D03*
X111500000Y-127500000D03*
X111506000Y-93822000D03*
X148590000Y-119762000D03*
X148500000Y-145500000D03*
X111500000Y-147500000D03*
X148590000Y-121762000D03*
X117500000Y-153500000D03*
X148590000Y-93758000D03*
X124500000Y-153500000D03*
X111506000Y-99822000D03*
X111500000Y-137500000D03*
X132000000Y-153500000D03*
X111500000Y-145500000D03*
X131500000Y-102000000D03*
X148590000Y-91758000D03*
X131500000Y-100500000D03*
X141000000Y-92500000D03*
X111500000Y-122000000D03*
X118872000Y-127508000D03*
X129286000Y-118872000D03*
X111506000Y-91822000D03*
X111506000Y-97822000D03*
X148590000Y-107758000D03*
X119500000Y-153500000D03*
X111500000Y-135500000D03*
X148500000Y-139500000D03*
X148590000Y-105758000D03*
X148500000Y-129500000D03*
X148500000Y-133500000D03*
X148590000Y-97758000D03*
X111500000Y-139500000D03*
X111500000Y-133500000D03*
X148500000Y-147500000D03*
X127000000Y-97500000D03*
X148590000Y-111762000D03*
%TO.N,CP2102_TX*%
X124676129Y-115330495D03*
X133096000Y-95250000D03*
%TO.N,IO19*%
X123444000Y-107188000D03*
X124460000Y-146304000D03*
%TO.N,CP2102_RX*%
X125476000Y-115316000D03*
X134366000Y-94996000D03*
%TO.N,IO14*%
X140208000Y-124460000D03*
X136906000Y-115824000D03*
%TO.N,IO18*%
X123444000Y-105156000D03*
X124460000Y-147828000D03*
%TO.N,CP2102_DM*%
X118364000Y-119634000D03*
X119380000Y-120650000D03*
%TO.N,CP2102_REGIN*%
X145288000Y-116840000D03*
X145796000Y-112268000D03*
X120500000Y-120500000D03*
X123000000Y-94000000D03*
%TO.N,CP2102_VBUS*%
X118110000Y-137668000D03*
X123952000Y-122926000D03*
X117856000Y-122936000D03*
%TO.N,I2C_SDA*%
X141478000Y-113538000D03*
X140220000Y-125718000D03*
%TO.N,I2C_SCL*%
X139954000Y-112938000D03*
X140970000Y-126492000D03*
X142748000Y-114046000D03*
%TO.N,IO21*%
X136906000Y-114046000D03*
X131572000Y-144272000D03*
X133096000Y-113284000D03*
%TD*%
D16*
%TO.N,CP2102_RTS*%
X133858000Y-117348000D02*
X133604000Y-117602000D01*
X133604000Y-127083735D02*
X141979000Y-135458735D01*
X141979000Y-135458735D02*
X141979000Y-139199000D01*
X133604000Y-117602000D02*
X133604000Y-127083735D01*
%TO.N,CP2102_DTR*%
X132426000Y-116586000D02*
X132588000Y-116748000D01*
X132588000Y-116748000D02*
X132588000Y-127762000D01*
X137414000Y-132588000D02*
X137414000Y-133858000D01*
X132588000Y-127762000D02*
X137414000Y-132588000D01*
%TO.N,IO0*%
X133096000Y-116840000D02*
X134874000Y-115062000D01*
X134874000Y-115062000D02*
X134874000Y-110236000D01*
X139446000Y-135382000D02*
X139446000Y-133858000D01*
X139446000Y-133858000D02*
X133096000Y-127508000D01*
X134874000Y-110236000D02*
X136652000Y-108458000D01*
X133096000Y-127508000D02*
X133096000Y-116840000D01*
%TO.N,RESET*%
X133858000Y-113370529D02*
X131826000Y-115402529D01*
X131826000Y-115402529D02*
X131826000Y-116834529D01*
X132080000Y-136652000D02*
X138176000Y-142748000D01*
X132080000Y-117088529D02*
X132080000Y-136652000D01*
X131826000Y-116834529D02*
X132080000Y-117088529D01*
X133604000Y-97028000D02*
X133858000Y-97282000D01*
X133858000Y-97282000D02*
X133858000Y-113370529D01*
%TO.N,IO36*%
X144730000Y-105350000D02*
X144730000Y-105488629D01*
%TO.N,CP2102_TX*%
X133096000Y-95250000D02*
X124676129Y-103669871D01*
X124676129Y-103669871D02*
X124676129Y-115330495D01*
%TO.N,IO19*%
X123444000Y-115512581D02*
X124968000Y-117036581D01*
X123444000Y-107188000D02*
X123444000Y-115512581D01*
X124968000Y-117036581D02*
X124968000Y-145796000D01*
X124968000Y-145796000D02*
X124460000Y-146304000D01*
%TO.N,CP2102_RX*%
X125476000Y-115316000D02*
X125222000Y-115062000D01*
X125222000Y-115062000D02*
X125222000Y-104140000D01*
X125222000Y-104140000D02*
X134366000Y-94996000D01*
%TO.N,IO14*%
X136906000Y-120904000D02*
X136906000Y-115824000D01*
X146942000Y-111630000D02*
X147200000Y-111372000D01*
X140213470Y-111414000D02*
X143868314Y-111414000D01*
X147200000Y-111372000D02*
X147200000Y-109090000D01*
X147200000Y-109090000D02*
X146000000Y-107890000D01*
X143868314Y-111414000D02*
X144084314Y-111630000D01*
X137506000Y-114121471D02*
X137506000Y-115224000D01*
X140213471Y-111414000D02*
X140164735Y-111462735D01*
X140208000Y-124206000D02*
X136906000Y-120904000D01*
X137506000Y-115224000D02*
X136906000Y-115824000D01*
X144084314Y-111630000D02*
X146942000Y-111630000D01*
X140208000Y-124460000D02*
X140208000Y-124206000D01*
X140164735Y-111462735D02*
X140213470Y-111414000D01*
X140164735Y-111462735D02*
X137506000Y-114121471D01*
%TO.N,IO18*%
X124044000Y-105756000D02*
X123444000Y-105156000D01*
X125476000Y-146812000D02*
X125476000Y-116978895D01*
X124044000Y-115546895D02*
X124044000Y-105756000D01*
X125476000Y-116978895D02*
X124044000Y-115546895D01*
X124460000Y-147828000D02*
X125476000Y-146812000D01*
%TO.N,CP2102_DM*%
X118364000Y-119634000D02*
X119380000Y-120650000D01*
D17*
%TO.N,CP2102_REGIN*%
X122682000Y-94318000D02*
X123000000Y-94000000D01*
D16*
X145796000Y-112268000D02*
X145796000Y-116332000D01*
D17*
X122682000Y-118318000D02*
X122682000Y-110490000D01*
X116000000Y-110430000D02*
X122622000Y-110430000D01*
X122682000Y-110490000D02*
X122682000Y-94318000D01*
D16*
X122622000Y-110430000D02*
X122682000Y-110490000D01*
X145796000Y-116332000D02*
X145288000Y-116840000D01*
D17*
X120500000Y-120500000D02*
X122682000Y-118318000D01*
%TO.N,CP2102_VBUS*%
X123454000Y-122428000D02*
X118364000Y-122428000D01*
X123952000Y-122926000D02*
X123454000Y-122428000D01*
X118364000Y-122428000D02*
X117856000Y-122936000D01*
X117856000Y-122936000D02*
X117764000Y-123028000D01*
X117764000Y-123028000D02*
X117764000Y-137322000D01*
X117764000Y-137322000D02*
X118110000Y-137668000D01*
D16*
%TO.N,I2C_SDA*%
X141478000Y-113538000D02*
X141478000Y-125730000D01*
X140232000Y-125730000D02*
X140220000Y-125718000D01*
X141478000Y-125730000D02*
X140232000Y-125730000D01*
%TO.N,I2C_SCL*%
X141726529Y-112938000D02*
X139954000Y-112938000D01*
X142748000Y-113959471D02*
X141726529Y-112938000D01*
X142748000Y-114046000D02*
X142748000Y-113959471D01*
X141732000Y-126492000D02*
X140970000Y-126492000D01*
X141986000Y-126238000D02*
X141732000Y-126492000D01*
X142748000Y-114046000D02*
X141986000Y-114808000D01*
X141986000Y-114808000D02*
X141986000Y-126238000D01*
%TO.N,IO21*%
X144250000Y-111230000D02*
X146580000Y-111230000D01*
X131572000Y-144272000D02*
X131572000Y-117348000D01*
X136906000Y-114046000D02*
X139938000Y-111014000D01*
X131318000Y-117094000D02*
X131318000Y-115062000D01*
X146800000Y-109960000D02*
X146000000Y-109160000D01*
X144034000Y-111014000D02*
X144250000Y-111230000D01*
X139938000Y-111014000D02*
X144034000Y-111014000D01*
X146580000Y-111230000D02*
X146800000Y-111010000D01*
X146800000Y-111010000D02*
X146800000Y-109960000D01*
X131572000Y-117348000D02*
X131318000Y-117094000D01*
X131318000Y-115062000D02*
X133096000Y-113284000D01*
%TD*%
%TA.AperFunction,Conductor*%
%TO.N,GND*%
G36*
X123637703Y-116555965D02*
G01*
X123644181Y-116561997D01*
X124331181Y-117248997D01*
X124364666Y-117310320D01*
X124367500Y-117336678D01*
X124367500Y-121980769D01*
X124347815Y-122047808D01*
X124295011Y-122093563D01*
X124225853Y-122103507D01*
X124162297Y-122074482D01*
X124155819Y-122068450D01*
X123932421Y-121845052D01*
X123932414Y-121845046D01*
X123858729Y-121795812D01*
X123858729Y-121795813D01*
X123809491Y-121762913D01*
X123672917Y-121706343D01*
X123672907Y-121706340D01*
X123527920Y-121677500D01*
X123527918Y-121677500D01*
X119597095Y-121677500D01*
X119530056Y-121657815D01*
X119484301Y-121605011D01*
X119474357Y-121535853D01*
X119503382Y-121472297D01*
X119556140Y-121436458D01*
X119559887Y-121435146D01*
X119729522Y-121375789D01*
X119882262Y-121279816D01*
X119949016Y-121213062D01*
X120010339Y-121179577D01*
X120080031Y-121184561D01*
X120102669Y-121195749D01*
X120130223Y-121213062D01*
X120150478Y-121225789D01*
X120304878Y-121279816D01*
X120320745Y-121285368D01*
X120320750Y-121285369D01*
X120499996Y-121305565D01*
X120500000Y-121305565D01*
X120500004Y-121305565D01*
X120679249Y-121285369D01*
X120679252Y-121285368D01*
X120679255Y-121285368D01*
X120849522Y-121225789D01*
X121002262Y-121129816D01*
X121129816Y-121002262D01*
X121225789Y-120849522D01*
X121225790Y-120849518D01*
X121228811Y-120843246D01*
X121230655Y-120844134D01*
X121253305Y-120808061D01*
X123264952Y-118796416D01*
X123314186Y-118722729D01*
X123347084Y-118673495D01*
X123403658Y-118536913D01*
X123432500Y-118391918D01*
X123432500Y-116649678D01*
X123452185Y-116582639D01*
X123504989Y-116536884D01*
X123574147Y-116526940D01*
X123637703Y-116555965D01*
G37*
%TD.AperFunction*%
%TA.AperFunction,Conductor*%
G36*
X139234216Y-113345001D02*
G01*
X139290150Y-113386873D01*
X139295871Y-113395203D01*
X139324184Y-113440262D01*
X139451738Y-113567816D01*
X139604478Y-113663789D01*
X139697892Y-113696476D01*
X139774745Y-113723368D01*
X139774750Y-113723369D01*
X139953996Y-113743565D01*
X139954000Y-113743565D01*
X139954004Y-113743565D01*
X140133249Y-113723369D01*
X140133252Y-113723368D01*
X140133255Y-113723368D01*
X140303522Y-113663789D01*
X140456262Y-113567816D01*
X140456267Y-113567810D01*
X140459097Y-113565555D01*
X140461275Y-113564665D01*
X140462158Y-113564111D01*
X140462255Y-113564265D01*
X140523783Y-113539145D01*
X140536412Y-113538500D01*
X140561678Y-113538500D01*
X140628717Y-113558185D01*
X140674472Y-113610989D01*
X140684898Y-113648617D01*
X140692630Y-113717249D01*
X140752210Y-113887521D01*
X140848185Y-114040263D01*
X140850445Y-114043097D01*
X140851334Y-114045275D01*
X140851889Y-114046158D01*
X140851734Y-114046255D01*
X140876855Y-114107783D01*
X140877500Y-114120412D01*
X140877500Y-123710905D01*
X140857815Y-123777944D01*
X140805011Y-123823699D01*
X140735853Y-123833643D01*
X140687528Y-123815899D01*
X140644486Y-123788854D01*
X140622776Y-123771540D01*
X140572397Y-123721160D01*
X140572374Y-123721139D01*
X137542819Y-120691584D01*
X137509334Y-120630261D01*
X137506500Y-120603903D01*
X137506500Y-116406412D01*
X137526185Y-116339373D01*
X137533555Y-116329097D01*
X137535810Y-116326267D01*
X137535816Y-116326262D01*
X137631789Y-116173522D01*
X137691368Y-116003255D01*
X137701161Y-115916329D01*
X137728226Y-115851918D01*
X137736690Y-115842543D01*
X137864506Y-115714728D01*
X137864511Y-115714724D01*
X137874714Y-115704520D01*
X137874716Y-115704520D01*
X137986520Y-115592716D01*
X138047374Y-115487313D01*
X138065577Y-115455785D01*
X138106500Y-115303057D01*
X138106500Y-115144943D01*
X138106500Y-114421567D01*
X138126185Y-114354528D01*
X138142814Y-114333890D01*
X139103204Y-113373500D01*
X139164525Y-113340017D01*
X139234216Y-113345001D01*
G37*
%TD.AperFunction*%
%TA.AperFunction,Conductor*%
G36*
X149466609Y-91019685D02*
G01*
X149512364Y-91072489D01*
X149523569Y-91124046D01*
X149509180Y-127217788D01*
X149499529Y-151425957D01*
X149499500Y-151426411D01*
X149499500Y-151496753D01*
X149499330Y-151503243D01*
X149483407Y-151807046D01*
X149482050Y-151819953D01*
X149434971Y-152117205D01*
X149432273Y-152129902D01*
X149354374Y-152420623D01*
X149350363Y-152432966D01*
X149242510Y-152713935D01*
X149237231Y-152725793D01*
X149100591Y-152993963D01*
X149094101Y-153005203D01*
X148930187Y-153257608D01*
X148922558Y-153268109D01*
X148733149Y-153502010D01*
X148724464Y-153511655D01*
X148511655Y-153724464D01*
X148502010Y-153733149D01*
X148268109Y-153922558D01*
X148257608Y-153930187D01*
X148005203Y-154094101D01*
X147993963Y-154100591D01*
X147725793Y-154237231D01*
X147713935Y-154242510D01*
X147432966Y-154350363D01*
X147420623Y-154354374D01*
X147129902Y-154432273D01*
X147117206Y-154434971D01*
X146819954Y-154482051D01*
X146807046Y-154483407D01*
X146503226Y-154499330D01*
X146496739Y-154499500D01*
X146426561Y-154499500D01*
X146425701Y-154499556D01*
X113478162Y-154524622D01*
X113471578Y-154524452D01*
X113167832Y-154508532D01*
X113154926Y-154507175D01*
X113053184Y-154491060D01*
X112857670Y-154460093D01*
X112844975Y-154457395D01*
X112554259Y-154379496D01*
X112541915Y-154375485D01*
X112260940Y-154267628D01*
X112249083Y-154262349D01*
X112205574Y-154240180D01*
X111980917Y-154125710D01*
X111969677Y-154119220D01*
X111717272Y-153955306D01*
X111706771Y-153947677D01*
X111472870Y-153758267D01*
X111463225Y-153749582D01*
X111250417Y-153536774D01*
X111241732Y-153527129D01*
X111052322Y-153293228D01*
X111044693Y-153282727D01*
X111035200Y-153268109D01*
X110880777Y-153030318D01*
X110874289Y-153019082D01*
X110737645Y-152750905D01*
X110732375Y-152739070D01*
X110624514Y-152458084D01*
X110620503Y-152445740D01*
X110542602Y-152155017D01*
X110539906Y-152142328D01*
X110495471Y-151861785D01*
X110492824Y-151845075D01*
X110491468Y-151832169D01*
X110475544Y-151528365D01*
X110475374Y-151521874D01*
X110475374Y-151378711D01*
X111649500Y-151378711D01*
X111649500Y-151621288D01*
X111681161Y-151861785D01*
X111743947Y-152096104D01*
X111768353Y-152155024D01*
X111836776Y-152320212D01*
X111958064Y-152530289D01*
X111958066Y-152530292D01*
X111958067Y-152530293D01*
X112105733Y-152722736D01*
X112105739Y-152722743D01*
X112277256Y-152894260D01*
X112277262Y-152894265D01*
X112469711Y-153041936D01*
X112679788Y-153163224D01*
X112903900Y-153256054D01*
X113138211Y-153318838D01*
X113318586Y-153342584D01*
X113378711Y-153350500D01*
X113378712Y-153350500D01*
X113621289Y-153350500D01*
X113669388Y-153344167D01*
X113861789Y-153318838D01*
X114096100Y-153256054D01*
X114320212Y-153163224D01*
X114530289Y-153041936D01*
X114722738Y-152894265D01*
X114894265Y-152722738D01*
X115041936Y-152530289D01*
X115163224Y-152320212D01*
X115256054Y-152096100D01*
X115318838Y-151861789D01*
X115350500Y-151621288D01*
X115350500Y-151378712D01*
X115350500Y-151378711D01*
X144649500Y-151378711D01*
X144649500Y-151621288D01*
X144681161Y-151861785D01*
X144743947Y-152096104D01*
X144768353Y-152155024D01*
X144836776Y-152320212D01*
X144958064Y-152530289D01*
X144958066Y-152530292D01*
X144958067Y-152530293D01*
X145105733Y-152722736D01*
X145105739Y-152722743D01*
X145277256Y-152894260D01*
X145277262Y-152894265D01*
X145469711Y-153041936D01*
X145679788Y-153163224D01*
X145903900Y-153256054D01*
X146138211Y-153318838D01*
X146318586Y-153342584D01*
X146378711Y-153350500D01*
X146378712Y-153350500D01*
X146621289Y-153350500D01*
X146669388Y-153344167D01*
X146861789Y-153318838D01*
X147096100Y-153256054D01*
X147320212Y-153163224D01*
X147530289Y-153041936D01*
X147722738Y-152894265D01*
X147894265Y-152722738D01*
X148041936Y-152530289D01*
X148163224Y-152320212D01*
X148256054Y-152096100D01*
X148318838Y-151861789D01*
X148350500Y-151621288D01*
X148350500Y-151378712D01*
X148318838Y-151138211D01*
X148256054Y-150903900D01*
X148163224Y-150679788D01*
X148041936Y-150469711D01*
X147894265Y-150277262D01*
X147894260Y-150277256D01*
X147722743Y-150105739D01*
X147722736Y-150105733D01*
X147530293Y-149958067D01*
X147530292Y-149958066D01*
X147530289Y-149958064D01*
X147320212Y-149836776D01*
X147320205Y-149836773D01*
X147096104Y-149743947D01*
X146861785Y-149681161D01*
X146621289Y-149649500D01*
X146621288Y-149649500D01*
X146378712Y-149649500D01*
X146378711Y-149649500D01*
X146138214Y-149681161D01*
X145903895Y-149743947D01*
X145679794Y-149836773D01*
X145679785Y-149836777D01*
X145469706Y-149958067D01*
X145277263Y-150105733D01*
X145277256Y-150105739D01*
X145105739Y-150277256D01*
X145105733Y-150277263D01*
X144958067Y-150469706D01*
X144836777Y-150679785D01*
X144836773Y-150679794D01*
X144743947Y-150903895D01*
X144681161Y-151138214D01*
X144649500Y-151378711D01*
X115350500Y-151378711D01*
X115318838Y-151138211D01*
X115256054Y-150903900D01*
X115163224Y-150679788D01*
X115041936Y-150469711D01*
X114894265Y-150277262D01*
X114894260Y-150277256D01*
X114722743Y-150105739D01*
X114722736Y-150105733D01*
X114530293Y-149958067D01*
X114530292Y-149958066D01*
X114530289Y-149958064D01*
X114320212Y-149836776D01*
X114320205Y-149836773D01*
X114096104Y-149743947D01*
X113861785Y-149681161D01*
X113621289Y-149649500D01*
X113621288Y-149649500D01*
X113378712Y-149649500D01*
X113378711Y-149649500D01*
X113138214Y-149681161D01*
X112903895Y-149743947D01*
X112679794Y-149836773D01*
X112679785Y-149836777D01*
X112469706Y-149958067D01*
X112277263Y-150105733D01*
X112277256Y-150105739D01*
X112105739Y-150277256D01*
X112105733Y-150277263D01*
X111958067Y-150469706D01*
X111836777Y-150679785D01*
X111836773Y-150679794D01*
X111743947Y-150903895D01*
X111681161Y-151138214D01*
X111649500Y-151378711D01*
X110475374Y-151378711D01*
X110475374Y-125387692D01*
X110495059Y-125320653D01*
X110547863Y-125274898D01*
X110617021Y-125264954D01*
X110655670Y-125277208D01*
X110777740Y-125339407D01*
X110942415Y-125392914D01*
X111113429Y-125420000D01*
X111250000Y-125420000D01*
X111250000Y-124620000D01*
X111750000Y-124620000D01*
X111750000Y-125420000D01*
X111886571Y-125420000D01*
X112057584Y-125392914D01*
X112222257Y-125339408D01*
X112376524Y-125260804D01*
X112516602Y-125159032D01*
X112639032Y-125036602D01*
X112740804Y-124896524D01*
X112819408Y-124742255D01*
X112872914Y-124577584D01*
X112874115Y-124570000D01*
X111966987Y-124570000D01*
X111984204Y-124560060D01*
X112040059Y-124504205D01*
X112079555Y-124435796D01*
X112099999Y-124359496D01*
X112099999Y-124280504D01*
X112079555Y-124204204D01*
X112040059Y-124135795D01*
X111984204Y-124079940D01*
X111966987Y-124070000D01*
X112874115Y-124070000D01*
X112874115Y-124069999D01*
X112872914Y-124062415D01*
X112819408Y-123897744D01*
X112740804Y-123743475D01*
X112639032Y-123603397D01*
X112516602Y-123480967D01*
X112376524Y-123379195D01*
X112222257Y-123300591D01*
X112057584Y-123247085D01*
X111886571Y-123220000D01*
X111750000Y-123220000D01*
X111750000Y-124020000D01*
X111250000Y-124020000D01*
X111250000Y-123220000D01*
X111113429Y-123220000D01*
X110942415Y-123247085D01*
X110777742Y-123300591D01*
X110655669Y-123362792D01*
X110587000Y-123375688D01*
X110522259Y-123349412D01*
X110482002Y-123292305D01*
X110475374Y-123252307D01*
X110475374Y-116747692D01*
X110495059Y-116680653D01*
X110547863Y-116634898D01*
X110617021Y-116624954D01*
X110655670Y-116637208D01*
X110777740Y-116699407D01*
X110942415Y-116752914D01*
X111113429Y-116780000D01*
X111250000Y-116780000D01*
X111250000Y-115980000D01*
X111750000Y-115980000D01*
X111750000Y-116780000D01*
X111886571Y-116780000D01*
X112057584Y-116752914D01*
X112222257Y-116699408D01*
X112376524Y-116620804D01*
X112516602Y-116519032D01*
X112639032Y-116396602D01*
X112740804Y-116256524D01*
X112819408Y-116102255D01*
X112872914Y-115937584D01*
X112874115Y-115930000D01*
X111966987Y-115930000D01*
X111984204Y-115920060D01*
X112040059Y-115864205D01*
X112079555Y-115795796D01*
X112099999Y-115719496D01*
X112099999Y-115640504D01*
X112079555Y-115564204D01*
X112040059Y-115495795D01*
X111984204Y-115439940D01*
X111966987Y-115430000D01*
X112874115Y-115430000D01*
X114239157Y-115430000D01*
X115093013Y-115430000D01*
X115075796Y-115439940D01*
X115019941Y-115495795D01*
X114980445Y-115564204D01*
X114960001Y-115640504D01*
X114960001Y-115719496D01*
X114980445Y-115795796D01*
X115019941Y-115864205D01*
X115075796Y-115920060D01*
X115093013Y-115930000D01*
X114239157Y-115930000D01*
X114250350Y-115986274D01*
X114250351Y-115986276D01*
X114329500Y-116177358D01*
X114329505Y-116177368D01*
X114444409Y-116349334D01*
X114504909Y-116409833D01*
X114538394Y-116471156D01*
X114533410Y-116540848D01*
X114520328Y-116566409D01*
X114511879Y-116579053D01*
X114500932Y-116593128D01*
X114488142Y-116607333D01*
X114488138Y-116607338D01*
X114459392Y-116657127D01*
X114455109Y-116664014D01*
X114426302Y-116707126D01*
X114426296Y-116707137D01*
X114418683Y-116725517D01*
X114411513Y-116740055D01*
X114398752Y-116762158D01*
X114382959Y-116810761D01*
X114379592Y-116819887D01*
X114362183Y-116861919D01*
X114362183Y-116861921D01*
X114357052Y-116887714D01*
X114353367Y-116901834D01*
X114343504Y-116932192D01*
X114343502Y-116932202D01*
X114338828Y-116976664D01*
X114337126Y-116987885D01*
X114329500Y-117026228D01*
X114329500Y-117058924D01*
X114328821Y-117071885D01*
X114324815Y-117110000D01*
X114328821Y-117148114D01*
X114329500Y-117161075D01*
X114329500Y-117193770D01*
X114337126Y-117232114D01*
X114338828Y-117243336D01*
X114343502Y-117287797D01*
X114343503Y-117287804D01*
X114353366Y-117318160D01*
X114357051Y-117332281D01*
X114362183Y-117358079D01*
X114362184Y-117358083D01*
X114379586Y-117400095D01*
X114382955Y-117409226D01*
X114398750Y-117457836D01*
X114411508Y-117479933D01*
X114418682Y-117494479D01*
X114426296Y-117512862D01*
X114455110Y-117555984D01*
X114459389Y-117562865D01*
X114466118Y-117574520D01*
X114488142Y-117612667D01*
X114488143Y-117612668D01*
X114500928Y-117626867D01*
X114511878Y-117640945D01*
X114519372Y-117652160D01*
X114560554Y-117693342D01*
X114565024Y-117698052D01*
X114607770Y-117745526D01*
X114607772Y-117745528D01*
X114618039Y-117752987D01*
X114632837Y-117765626D01*
X114637834Y-117770623D01*
X114637842Y-117770629D01*
X114691556Y-117806520D01*
X114695551Y-117809304D01*
X114752405Y-117850611D01*
X114752406Y-117850611D01*
X114752407Y-117850612D01*
X114758136Y-117853162D01*
X114776606Y-117863348D01*
X114777137Y-117863703D01*
X114842729Y-117890872D01*
X114845696Y-117892147D01*
X114915724Y-117923326D01*
X114916962Y-117923728D01*
X114925940Y-117926520D01*
X114926085Y-117926046D01*
X114931912Y-117927814D01*
X114931914Y-117927814D01*
X114931918Y-117927816D01*
X115007928Y-117942934D01*
X115009393Y-117943236D01*
X115090609Y-117960500D01*
X115090610Y-117960500D01*
X115269389Y-117960500D01*
X115269391Y-117960500D01*
X115350663Y-117943224D01*
X115352068Y-117942935D01*
X115428082Y-117927816D01*
X115428087Y-117927813D01*
X115433913Y-117926046D01*
X115434057Y-117926521D01*
X115443088Y-117923711D01*
X115444251Y-117923332D01*
X115444267Y-117923329D01*
X115514329Y-117892134D01*
X115517212Y-117890895D01*
X115582863Y-117863703D01*
X115583390Y-117863350D01*
X115601865Y-117853162D01*
X115602684Y-117852796D01*
X115607593Y-117850612D01*
X115664505Y-117809261D01*
X115668388Y-117806555D01*
X115722162Y-117770626D01*
X115727164Y-117765622D01*
X115741960Y-117752987D01*
X115752230Y-117745526D01*
X115794994Y-117698030D01*
X115799428Y-117693358D01*
X115840626Y-117652162D01*
X115848120Y-117640945D01*
X115859071Y-117626866D01*
X115863687Y-117621740D01*
X115871859Y-117612665D01*
X115900610Y-117562863D01*
X115904887Y-117555987D01*
X115933700Y-117512867D01*
X115933703Y-117512863D01*
X115941320Y-117494469D01*
X115948491Y-117479933D01*
X115961250Y-117457835D01*
X115977047Y-117409213D01*
X115980404Y-117400115D01*
X115997816Y-117358082D01*
X116002948Y-117332278D01*
X116006630Y-117318168D01*
X116016497Y-117287803D01*
X116021171Y-117243322D01*
X116022875Y-117232098D01*
X116030500Y-117193767D01*
X116030500Y-117161075D01*
X116031179Y-117148114D01*
X116031236Y-117147569D01*
X116035185Y-117110000D01*
X116031179Y-117071885D01*
X116030500Y-117058924D01*
X116030500Y-117026232D01*
X116028253Y-117014939D01*
X116022872Y-116987885D01*
X116021171Y-116976671D01*
X116016497Y-116932197D01*
X116006633Y-116901839D01*
X116002947Y-116887714D01*
X116001053Y-116878193D01*
X116007279Y-116808601D01*
X116050142Y-116753423D01*
X116116031Y-116730178D01*
X116122670Y-116730000D01*
X116263417Y-116730000D01*
X116263420Y-116729999D01*
X116466266Y-116689651D01*
X116466274Y-116689649D01*
X116657358Y-116610499D01*
X116657368Y-116610494D01*
X116829335Y-116495589D01*
X116829339Y-116495586D01*
X116975586Y-116349339D01*
X116975589Y-116349335D01*
X117090494Y-116177368D01*
X117090499Y-116177358D01*
X117169648Y-115986276D01*
X117169649Y-115986274D01*
X117180843Y-115930000D01*
X116326987Y-115930000D01*
X116344204Y-115920060D01*
X116400059Y-115864205D01*
X116439555Y-115795796D01*
X116459999Y-115719496D01*
X116459999Y-115640504D01*
X116439555Y-115564204D01*
X116400059Y-115495795D01*
X116344204Y-115439940D01*
X116326987Y-115430000D01*
X117180843Y-115430000D01*
X117169649Y-115373725D01*
X117169648Y-115373723D01*
X117090499Y-115182641D01*
X117090494Y-115182631D01*
X116975589Y-115010664D01*
X116975586Y-115010660D01*
X116829339Y-114864413D01*
X116829335Y-114864410D01*
X116657368Y-114749505D01*
X116657358Y-114749500D01*
X116466274Y-114670350D01*
X116466266Y-114670348D01*
X116263420Y-114630000D01*
X115960000Y-114630000D01*
X115960000Y-115380000D01*
X115460000Y-115380000D01*
X115460000Y-114630000D01*
X115156579Y-114630000D01*
X114953733Y-114670348D01*
X114953725Y-114670350D01*
X114762641Y-114749500D01*
X114762631Y-114749505D01*
X114590664Y-114864410D01*
X114590660Y-114864413D01*
X114444413Y-115010660D01*
X114444410Y-115010664D01*
X114329505Y-115182631D01*
X114329500Y-115182641D01*
X114250351Y-115373723D01*
X114250350Y-115373725D01*
X114239157Y-115430000D01*
X112874115Y-115430000D01*
X112874115Y-115429999D01*
X112872914Y-115422415D01*
X112819408Y-115257744D01*
X112740804Y-115103475D01*
X112639032Y-114963397D01*
X112516602Y-114840967D01*
X112376524Y-114739195D01*
X112222257Y-114660591D01*
X112057584Y-114607085D01*
X111886571Y-114580000D01*
X111750000Y-114580000D01*
X111750000Y-115380000D01*
X111250000Y-115380000D01*
X111250000Y-114580000D01*
X111113429Y-114580000D01*
X110942415Y-114607085D01*
X110777742Y-114660591D01*
X110655669Y-114722792D01*
X110587000Y-114735688D01*
X110522259Y-114709412D01*
X110482002Y-114652305D01*
X110475374Y-114612307D01*
X110475374Y-110680000D01*
X113760840Y-110680000D01*
X113801652Y-110814541D01*
X113894503Y-110988253D01*
X113894507Y-110988260D01*
X114019471Y-111140528D01*
X114171739Y-111265491D01*
X114345465Y-111358349D01*
X114480000Y-111399159D01*
X114480000Y-110680000D01*
X113760840Y-110680000D01*
X110475374Y-110680000D01*
X110475374Y-100270000D01*
X113724659Y-100270000D01*
X113743975Y-100466129D01*
X113801188Y-100654733D01*
X113894086Y-100828532D01*
X113897473Y-100833601D01*
X113895836Y-100834694D01*
X113919596Y-100890663D01*
X113907795Y-100959529D01*
X113897109Y-100976156D01*
X113897473Y-100976399D01*
X113894086Y-100981467D01*
X113801188Y-101155266D01*
X113743975Y-101343870D01*
X113724659Y-101540000D01*
X113743975Y-101736129D01*
X113801188Y-101924733D01*
X113894086Y-102098532D01*
X113897473Y-102103601D01*
X113895836Y-102104694D01*
X113919596Y-102160663D01*
X113907795Y-102229529D01*
X113897109Y-102246156D01*
X113897473Y-102246399D01*
X113894086Y-102251467D01*
X113801188Y-102425266D01*
X113743975Y-102613870D01*
X113724659Y-102810000D01*
X113743975Y-103006129D01*
X113801188Y-103194733D01*
X113894086Y-103368532D01*
X113897473Y-103373601D01*
X113895836Y-103374694D01*
X113919596Y-103430663D01*
X113907795Y-103499529D01*
X113897109Y-103516156D01*
X113897473Y-103516399D01*
X113894086Y-103521467D01*
X113801188Y-103695266D01*
X113743975Y-103883870D01*
X113724659Y-104080000D01*
X113743975Y-104276129D01*
X113743976Y-104276132D01*
X113796763Y-104450148D01*
X113801188Y-104464733D01*
X113894086Y-104638532D01*
X113897473Y-104643601D01*
X113895836Y-104644694D01*
X113919596Y-104700663D01*
X113907795Y-104769529D01*
X113897109Y-104786156D01*
X113897473Y-104786399D01*
X113894086Y-104791467D01*
X113801188Y-104965266D01*
X113743975Y-105153870D01*
X113724659Y-105350000D01*
X113743975Y-105546129D01*
X113801188Y-105734733D01*
X113894086Y-105908532D01*
X113897473Y-105913601D01*
X113895836Y-105914694D01*
X113919596Y-105970663D01*
X113907795Y-106039529D01*
X113897109Y-106056156D01*
X113897473Y-106056399D01*
X113894086Y-106061467D01*
X113801188Y-106235266D01*
X113743975Y-106423870D01*
X113724659Y-106620000D01*
X113743975Y-106816129D01*
X113801188Y-107004733D01*
X113894086Y-107178532D01*
X113897473Y-107183601D01*
X113895836Y-107184694D01*
X113919596Y-107240663D01*
X113907795Y-107309529D01*
X113897109Y-107326156D01*
X113897473Y-107326399D01*
X113894086Y-107331467D01*
X113801188Y-107505266D01*
X113743975Y-107693870D01*
X113724659Y-107890000D01*
X113743975Y-108086129D01*
X113801188Y-108274733D01*
X113894086Y-108448532D01*
X113897473Y-108453601D01*
X113895836Y-108454694D01*
X113919596Y-108510663D01*
X113907795Y-108579529D01*
X113897109Y-108596156D01*
X113897473Y-108596399D01*
X113894086Y-108601467D01*
X113801188Y-108775266D01*
X113801186Y-108775273D01*
X113743976Y-108963868D01*
X113731768Y-109087816D01*
X113724659Y-109160000D01*
X113743975Y-109356129D01*
X113801188Y-109544733D01*
X113894086Y-109718532D01*
X113897473Y-109723601D01*
X113895955Y-109724615D01*
X113919918Y-109781042D01*
X113908124Y-109849909D01*
X113897515Y-109866420D01*
X113897893Y-109866673D01*
X113894505Y-109871742D01*
X113801652Y-110045458D01*
X113760839Y-110179999D01*
X113760840Y-110180000D01*
X114520382Y-110180000D01*
X114469936Y-110230446D01*
X114427149Y-110304555D01*
X114405000Y-110387213D01*
X114405000Y-110472787D01*
X114427149Y-110555445D01*
X114469936Y-110629554D01*
X114530446Y-110690064D01*
X114604555Y-110732851D01*
X114687213Y-110755000D01*
X114772787Y-110755000D01*
X114855445Y-110732851D01*
X114929554Y-110690064D01*
X114980000Y-110639618D01*
X114980000Y-111399159D01*
X115114534Y-111358349D01*
X115288259Y-111265492D01*
X115293320Y-111262111D01*
X115294444Y-111263793D01*
X115350203Y-111240086D01*
X115419075Y-111251851D01*
X115436186Y-111262843D01*
X115436399Y-111262526D01*
X115441457Y-111265906D01*
X115441462Y-111265910D01*
X115615273Y-111358814D01*
X115803868Y-111416024D01*
X116000000Y-111435341D01*
X116196132Y-111416024D01*
X116384727Y-111358814D01*
X116558538Y-111265910D01*
X116628313Y-111208647D01*
X116692623Y-111181334D01*
X116706978Y-111180500D01*
X121807500Y-111180500D01*
X121874539Y-111200185D01*
X121920294Y-111252989D01*
X121931500Y-111304500D01*
X121931500Y-117955769D01*
X121911815Y-118022808D01*
X121895181Y-118043450D01*
X120191937Y-119746693D01*
X120155876Y-119769362D01*
X120156756Y-119771188D01*
X120150478Y-119774211D01*
X119997737Y-119870184D01*
X119997736Y-119870185D01*
X119930982Y-119936938D01*
X119869658Y-119970423D01*
X119799967Y-119965437D01*
X119777331Y-119954250D01*
X119729527Y-119924213D01*
X119729523Y-119924211D01*
X119596944Y-119877820D01*
X119559255Y-119864632D01*
X119559254Y-119864631D01*
X119559249Y-119864630D01*
X119472330Y-119854837D01*
X119407916Y-119827770D01*
X119398533Y-119819298D01*
X119194700Y-119615465D01*
X119161215Y-119554142D01*
X119159163Y-119541686D01*
X119149368Y-119454745D01*
X119089789Y-119284478D01*
X118993816Y-119131738D01*
X118866262Y-119004184D01*
X118713523Y-118908211D01*
X118543254Y-118848631D01*
X118543249Y-118848630D01*
X118364004Y-118828435D01*
X118363996Y-118828435D01*
X118184750Y-118848630D01*
X118184745Y-118848631D01*
X118014476Y-118908211D01*
X117861737Y-119004184D01*
X117734184Y-119131737D01*
X117638211Y-119284476D01*
X117578631Y-119454745D01*
X117578630Y-119454750D01*
X117558435Y-119633996D01*
X117558435Y-119634003D01*
X117578630Y-119813249D01*
X117578631Y-119813254D01*
X117638211Y-119983523D01*
X117734184Y-120136262D01*
X117861738Y-120263816D01*
X118014478Y-120359789D01*
X118184745Y-120419368D01*
X118271669Y-120429161D01*
X118336080Y-120456226D01*
X118345465Y-120464700D01*
X118549298Y-120668533D01*
X118582783Y-120729856D01*
X118584837Y-120742330D01*
X118594630Y-120829249D01*
X118654210Y-120999521D01*
X118736080Y-121129815D01*
X118750184Y-121152262D01*
X118877738Y-121279816D01*
X119030478Y-121375789D01*
X119075635Y-121391590D01*
X119203860Y-121436458D01*
X119260636Y-121477180D01*
X119286383Y-121542133D01*
X119272927Y-121610695D01*
X119224540Y-121661097D01*
X119162905Y-121677500D01*
X118290080Y-121677500D01*
X118145092Y-121706340D01*
X118145082Y-121706343D01*
X118008511Y-121762912D01*
X118008498Y-121762919D01*
X117885584Y-121845048D01*
X117885580Y-121845051D01*
X117547937Y-122182693D01*
X117511873Y-122205370D01*
X117512750Y-122207191D01*
X117506475Y-122210212D01*
X117353737Y-122306184D01*
X117226184Y-122433737D01*
X117130212Y-122586475D01*
X117130211Y-122586476D01*
X117105533Y-122657001D01*
X117101203Y-122666865D01*
X117101245Y-122666883D01*
X117042342Y-122809086D01*
X117042340Y-122809092D01*
X117013500Y-122954079D01*
X117013500Y-123395477D01*
X116993815Y-123462516D01*
X116941011Y-123508271D01*
X116871853Y-123518215D01*
X116820609Y-123498579D01*
X116657368Y-123389505D01*
X116657358Y-123389500D01*
X116466274Y-123310350D01*
X116466266Y-123310348D01*
X116263420Y-123270000D01*
X116122670Y-123270000D01*
X116055631Y-123250315D01*
X116009876Y-123197511D01*
X115999932Y-123128353D01*
X116001051Y-123121819D01*
X116002945Y-123112293D01*
X116006630Y-123098168D01*
X116016497Y-123067803D01*
X116021171Y-123023322D01*
X116022875Y-123012098D01*
X116030500Y-122973767D01*
X116030500Y-122941075D01*
X116031179Y-122928114D01*
X116031236Y-122927569D01*
X116035185Y-122890000D01*
X116031179Y-122851885D01*
X116030500Y-122838924D01*
X116030500Y-122806232D01*
X116028398Y-122795670D01*
X116022872Y-122767885D01*
X116021171Y-122756671D01*
X116016497Y-122712197D01*
X116006633Y-122681839D01*
X116002947Y-122667712D01*
X115997817Y-122641925D01*
X115997816Y-122641918D01*
X115980401Y-122599877D01*
X115977045Y-122590780D01*
X115961250Y-122542165D01*
X115948486Y-122520058D01*
X115941314Y-122505513D01*
X115933706Y-122487144D01*
X115933705Y-122487142D01*
X115933703Y-122487137D01*
X115904885Y-122444008D01*
X115900601Y-122437119D01*
X115898648Y-122433737D01*
X115871859Y-122387335D01*
X115871856Y-122387331D01*
X115859070Y-122373131D01*
X115848115Y-122359047D01*
X115840629Y-122347843D01*
X115840626Y-122347838D01*
X115799441Y-122306653D01*
X115794974Y-122301946D01*
X115752234Y-122254477D01*
X115752230Y-122254474D01*
X115741952Y-122247006D01*
X115727161Y-122234372D01*
X115722165Y-122229376D01*
X115722161Y-122229373D01*
X115668442Y-122193479D01*
X115664448Y-122190695D01*
X115607594Y-122149388D01*
X115607593Y-122149387D01*
X115601855Y-122146833D01*
X115583397Y-122136654D01*
X115582866Y-122136299D01*
X115582865Y-122136298D01*
X115582863Y-122136297D01*
X115517241Y-122109115D01*
X115514289Y-122107846D01*
X115444270Y-122076672D01*
X115443316Y-122076362D01*
X115434047Y-122073492D01*
X115433908Y-122073952D01*
X115428085Y-122072185D01*
X115428082Y-122072184D01*
X115428078Y-122072183D01*
X115428071Y-122072181D01*
X115352172Y-122057084D01*
X115350620Y-122056765D01*
X115269391Y-122039500D01*
X115090609Y-122039500D01*
X115026601Y-122053104D01*
X115009428Y-122056755D01*
X115007841Y-122057081D01*
X114931921Y-122072183D01*
X114926090Y-122073952D01*
X114925949Y-122073490D01*
X114916651Y-122076372D01*
X114915731Y-122076671D01*
X114845721Y-122107840D01*
X114842745Y-122109119D01*
X114777139Y-122136295D01*
X114777132Y-122136299D01*
X114776581Y-122136668D01*
X114758157Y-122146827D01*
X114752413Y-122149384D01*
X114752406Y-122149389D01*
X114695580Y-122190675D01*
X114691590Y-122193456D01*
X114637841Y-122229371D01*
X114637834Y-122229377D01*
X114632830Y-122234381D01*
X114618050Y-122247003D01*
X114607777Y-122254467D01*
X114607767Y-122254476D01*
X114565022Y-122301948D01*
X114560557Y-122306653D01*
X114519377Y-122347834D01*
X114519369Y-122347843D01*
X114511877Y-122359056D01*
X114500932Y-122373128D01*
X114488142Y-122387333D01*
X114488138Y-122387338D01*
X114459392Y-122437127D01*
X114455109Y-122444014D01*
X114426302Y-122487126D01*
X114426296Y-122487137D01*
X114418683Y-122505517D01*
X114411513Y-122520055D01*
X114398752Y-122542158D01*
X114382959Y-122590761D01*
X114379592Y-122599887D01*
X114362183Y-122641919D01*
X114362183Y-122641921D01*
X114357052Y-122667714D01*
X114353367Y-122681834D01*
X114343504Y-122712192D01*
X114343502Y-122712202D01*
X114338828Y-122756664D01*
X114337126Y-122767885D01*
X114329500Y-122806228D01*
X114329500Y-122838924D01*
X114328821Y-122851885D01*
X114324815Y-122890000D01*
X114328821Y-122928114D01*
X114329500Y-122941075D01*
X114329500Y-122973770D01*
X114337126Y-123012114D01*
X114338828Y-123023336D01*
X114343502Y-123067797D01*
X114343503Y-123067804D01*
X114353366Y-123098160D01*
X114357051Y-123112281D01*
X114362183Y-123138079D01*
X114362184Y-123138084D01*
X114379586Y-123180095D01*
X114382955Y-123189226D01*
X114398750Y-123237836D01*
X114411508Y-123259933D01*
X114418682Y-123274479D01*
X114426296Y-123292862D01*
X114455110Y-123335984D01*
X114459396Y-123342876D01*
X114488142Y-123392667D01*
X114488143Y-123392668D01*
X114500928Y-123406867D01*
X114511877Y-123420942D01*
X114519374Y-123432162D01*
X114519377Y-123432165D01*
X114520326Y-123433585D01*
X114541208Y-123500261D01*
X114522728Y-123567643D01*
X114504911Y-123590163D01*
X114444408Y-123650667D01*
X114329505Y-123822631D01*
X114329500Y-123822641D01*
X114250351Y-124013723D01*
X114250350Y-124013725D01*
X114239157Y-124070000D01*
X115093001Y-124070000D01*
X115075784Y-124079940D01*
X115019929Y-124135795D01*
X114980433Y-124204204D01*
X114959989Y-124280504D01*
X114959989Y-124359496D01*
X114980433Y-124435796D01*
X115019929Y-124504205D01*
X115075784Y-124560060D01*
X115093001Y-124570000D01*
X114239157Y-124570000D01*
X114250350Y-124626274D01*
X114250351Y-124626276D01*
X114329500Y-124817358D01*
X114329505Y-124817368D01*
X114444410Y-124989335D01*
X114444413Y-124989339D01*
X114590660Y-125135586D01*
X114590664Y-125135589D01*
X114762631Y-125250494D01*
X114762641Y-125250499D01*
X114953725Y-125329649D01*
X114953733Y-125329651D01*
X115156579Y-125369999D01*
X115156583Y-125370000D01*
X115460000Y-125370000D01*
X115460000Y-124620000D01*
X115960000Y-124620000D01*
X115960000Y-125370000D01*
X116263417Y-125370000D01*
X116263420Y-125369999D01*
X116466266Y-125329651D01*
X116466274Y-125329649D01*
X116657358Y-125250499D01*
X116657368Y-125250494D01*
X116820609Y-125141420D01*
X116887286Y-125120542D01*
X116954667Y-125139026D01*
X117001357Y-125191005D01*
X117013500Y-125244522D01*
X117013500Y-137395918D01*
X117013500Y-137395920D01*
X117013499Y-137395920D01*
X117042340Y-137540907D01*
X117042343Y-137540917D01*
X117098914Y-137677492D01*
X117131812Y-137726727D01*
X117131813Y-137726730D01*
X117181046Y-137800414D01*
X117181052Y-137800421D01*
X117356692Y-137976060D01*
X117379356Y-138012129D01*
X117381188Y-138011247D01*
X117384207Y-138017516D01*
X117480184Y-138170262D01*
X117607738Y-138297816D01*
X117760478Y-138393789D01*
X117930745Y-138453368D01*
X117930750Y-138453369D01*
X118109996Y-138473565D01*
X118110000Y-138473565D01*
X118110004Y-138473565D01*
X118289249Y-138453369D01*
X118289252Y-138453368D01*
X118289255Y-138453368D01*
X118459522Y-138393789D01*
X118612262Y-138297816D01*
X118739816Y-138170262D01*
X118835789Y-138017522D01*
X118895368Y-137847255D01*
X118895369Y-137847249D01*
X118915565Y-137668003D01*
X118915565Y-137667996D01*
X118895369Y-137488750D01*
X118895368Y-137488745D01*
X118835788Y-137318476D01*
X118739815Y-137165737D01*
X118612262Y-137038184D01*
X118612259Y-137038182D01*
X118572527Y-137013216D01*
X118526236Y-136960881D01*
X118514500Y-136908223D01*
X118514500Y-123428335D01*
X118533507Y-123362362D01*
X118566188Y-123310350D01*
X118581789Y-123285522D01*
X118581791Y-123285513D01*
X118584808Y-123279252D01*
X118586648Y-123280138D01*
X118609304Y-123244062D01*
X118638551Y-123214815D01*
X118699873Y-123181333D01*
X118726229Y-123178500D01*
X123091770Y-123178500D01*
X123158809Y-123198185D01*
X123179451Y-123214819D01*
X123198692Y-123234060D01*
X123221356Y-123270123D01*
X123223186Y-123269242D01*
X123226208Y-123275516D01*
X123226210Y-123275519D01*
X123226211Y-123275522D01*
X123322184Y-123428262D01*
X123449738Y-123555816D01*
X123468561Y-123567643D01*
X123579684Y-123637467D01*
X123602478Y-123651789D01*
X123749771Y-123703329D01*
X123772745Y-123711368D01*
X123772750Y-123711369D01*
X123951996Y-123731565D01*
X123952000Y-123731565D01*
X123952004Y-123731565D01*
X124131249Y-123711369D01*
X124131251Y-123711368D01*
X124131255Y-123711368D01*
X124131258Y-123711366D01*
X124131262Y-123711366D01*
X124202545Y-123686423D01*
X124272323Y-123682860D01*
X124332951Y-123717589D01*
X124365179Y-123779582D01*
X124367500Y-123803464D01*
X124367500Y-145400292D01*
X124347815Y-145467331D01*
X124295011Y-145513086D01*
X124284455Y-145517334D01*
X124110476Y-145578211D01*
X123957737Y-145674184D01*
X123830184Y-145801737D01*
X123734211Y-145954476D01*
X123674631Y-146124745D01*
X123674630Y-146124750D01*
X123654435Y-146303996D01*
X123654435Y-146304003D01*
X123674630Y-146483249D01*
X123674631Y-146483254D01*
X123734211Y-146653523D01*
X123830184Y-146806262D01*
X123957737Y-146933815D01*
X123957740Y-146933817D01*
X124001011Y-146961007D01*
X124047302Y-147013342D01*
X124057949Y-147082395D01*
X124029574Y-147146244D01*
X124001011Y-147170993D01*
X123957740Y-147198182D01*
X123957737Y-147198184D01*
X123830184Y-147325737D01*
X123734211Y-147478476D01*
X123674631Y-147648745D01*
X123674630Y-147648750D01*
X123654435Y-147827996D01*
X123654435Y-147828003D01*
X123674630Y-148007249D01*
X123674631Y-148007254D01*
X123734211Y-148177523D01*
X123830184Y-148330262D01*
X123957738Y-148457816D01*
X124110478Y-148553789D01*
X124280745Y-148613368D01*
X124280750Y-148613369D01*
X124459996Y-148633565D01*
X124460000Y-148633565D01*
X124460004Y-148633565D01*
X124639249Y-148613369D01*
X124639252Y-148613368D01*
X124639255Y-148613368D01*
X124809522Y-148553789D01*
X124962262Y-148457816D01*
X125089816Y-148330262D01*
X125185789Y-148177522D01*
X125245368Y-148007255D01*
X125255161Y-147920329D01*
X125282226Y-147855918D01*
X125290690Y-147846543D01*
X125834506Y-147302728D01*
X125834511Y-147302724D01*
X125844714Y-147292520D01*
X125844716Y-147292520D01*
X125956520Y-147180716D01*
X126009259Y-147089368D01*
X126035577Y-147043785D01*
X126076501Y-146891057D01*
X126076501Y-146732943D01*
X126076501Y-146725348D01*
X126076500Y-146725330D01*
X126076500Y-117067954D01*
X126076501Y-117067941D01*
X126076501Y-116899840D01*
X126076501Y-116899838D01*
X126035577Y-116747110D01*
X125990447Y-116668943D01*
X125956520Y-116610179D01*
X125844716Y-116498375D01*
X125844715Y-116498374D01*
X125840385Y-116494044D01*
X125840374Y-116494034D01*
X125641051Y-116294711D01*
X125607566Y-116233388D01*
X125612550Y-116163696D01*
X125654422Y-116107763D01*
X125687777Y-116089988D01*
X125825522Y-116041789D01*
X125978262Y-115945816D01*
X126105816Y-115818262D01*
X126201789Y-115665522D01*
X126261368Y-115495255D01*
X126262263Y-115487313D01*
X126281565Y-115316003D01*
X126281565Y-115315996D01*
X126261369Y-115136750D01*
X126261368Y-115136745D01*
X126207550Y-114982942D01*
X126201789Y-114966478D01*
X126105816Y-114813738D01*
X125978262Y-114686184D01*
X125978260Y-114686182D01*
X125880527Y-114624772D01*
X125834237Y-114572438D01*
X125822500Y-114519779D01*
X125822500Y-104440096D01*
X125842185Y-104373057D01*
X125858814Y-104352420D01*
X132751093Y-97460140D01*
X132812414Y-97426657D01*
X132882106Y-97431641D01*
X132938039Y-97473513D01*
X132943766Y-97481852D01*
X132974181Y-97530259D01*
X132974184Y-97530262D01*
X133101738Y-97657816D01*
X133199472Y-97719226D01*
X133245763Y-97771561D01*
X133257500Y-97824220D01*
X133257500Y-112357875D01*
X133237815Y-112424914D01*
X133185011Y-112470669D01*
X133119619Y-112481096D01*
X133113325Y-112480387D01*
X133096000Y-112478435D01*
X133095998Y-112478435D01*
X133095997Y-112478435D01*
X133095996Y-112478435D01*
X132916750Y-112498630D01*
X132916745Y-112498631D01*
X132746476Y-112558211D01*
X132593737Y-112654184D01*
X132466184Y-112781737D01*
X132370210Y-112934478D01*
X132310630Y-113104750D01*
X132300837Y-113191667D01*
X132273770Y-113256081D01*
X132265298Y-113265464D01*
X130949286Y-114581478D01*
X130837481Y-114693282D01*
X130837479Y-114693285D01*
X130822989Y-114718382D01*
X130808499Y-114743481D01*
X130769006Y-114811884D01*
X130759159Y-114828941D01*
X130758423Y-114830215D01*
X130717499Y-114982943D01*
X130717499Y-114982945D01*
X130717499Y-115151046D01*
X130717500Y-115151059D01*
X130717500Y-117007330D01*
X130717499Y-117007348D01*
X130717499Y-117173054D01*
X130717498Y-117173054D01*
X130756379Y-117318160D01*
X130758423Y-117325785D01*
X130777070Y-117358082D01*
X130801326Y-117400095D01*
X130837479Y-117462714D01*
X130837481Y-117462717D01*
X130935181Y-117560417D01*
X130968666Y-117621740D01*
X130971500Y-117648098D01*
X130971500Y-143689587D01*
X130951815Y-143756626D01*
X130944450Y-143766896D01*
X130942186Y-143769734D01*
X130846211Y-143922476D01*
X130786631Y-144092745D01*
X130786630Y-144092750D01*
X130766435Y-144271996D01*
X130766435Y-144272003D01*
X130786630Y-144451249D01*
X130786631Y-144451254D01*
X130846211Y-144621523D01*
X130942184Y-144774262D01*
X131069738Y-144901816D01*
X131222478Y-144997789D01*
X131392745Y-145057368D01*
X131392750Y-145057369D01*
X131571996Y-145077565D01*
X131572000Y-145077565D01*
X131572004Y-145077565D01*
X131751249Y-145057369D01*
X131751252Y-145057368D01*
X131751255Y-145057368D01*
X131921522Y-144997789D01*
X132074262Y-144901816D01*
X132201816Y-144774262D01*
X132297789Y-144621522D01*
X132357368Y-144451255D01*
X132377565Y-144272000D01*
X132357368Y-144092745D01*
X132297789Y-143922478D01*
X132201816Y-143769738D01*
X132201814Y-143769736D01*
X132201813Y-143769734D01*
X132199550Y-143766896D01*
X132198659Y-143764715D01*
X132198111Y-143763842D01*
X132198264Y-143763745D01*
X132173144Y-143702209D01*
X132172500Y-143689587D01*
X132172500Y-137893097D01*
X132192185Y-137826058D01*
X132244989Y-137780303D01*
X132314147Y-137770359D01*
X132377703Y-137799384D01*
X132384181Y-137805416D01*
X137345298Y-142766533D01*
X137378783Y-142827856D01*
X137380837Y-142840330D01*
X137390630Y-142927249D01*
X137450210Y-143097521D01*
X137546184Y-143250262D01*
X137673738Y-143377816D01*
X137826478Y-143473789D01*
X137996745Y-143533368D01*
X137996750Y-143533369D01*
X138175996Y-143553565D01*
X138176000Y-143553565D01*
X138176004Y-143553565D01*
X138355249Y-143533369D01*
X138355252Y-143533368D01*
X138355255Y-143533368D01*
X138525522Y-143473789D01*
X138678262Y-143377816D01*
X138805816Y-143250262D01*
X138901789Y-143097522D01*
X138961368Y-142927255D01*
X138971162Y-142840330D01*
X138981565Y-142748003D01*
X138981565Y-142747996D01*
X138961369Y-142568750D01*
X138961368Y-142568745D01*
X138901788Y-142398476D01*
X138805815Y-142245737D01*
X138678262Y-142118184D01*
X138525521Y-142022210D01*
X138355249Y-141962630D01*
X138268330Y-141952837D01*
X138203916Y-141925770D01*
X138194533Y-141917298D01*
X132716819Y-136439584D01*
X132683334Y-136378261D01*
X132680500Y-136351903D01*
X132680500Y-129003097D01*
X132700185Y-128936058D01*
X132752989Y-128890303D01*
X132822147Y-128880359D01*
X132885703Y-128909384D01*
X132892181Y-128915416D01*
X136777181Y-132800416D01*
X136810666Y-132861739D01*
X136813500Y-132888097D01*
X136813500Y-133275587D01*
X136793815Y-133342626D01*
X136786450Y-133352896D01*
X136784186Y-133355734D01*
X136688211Y-133508476D01*
X136628631Y-133678745D01*
X136628630Y-133678750D01*
X136608435Y-133857996D01*
X136608435Y-133858003D01*
X136628630Y-134037249D01*
X136628631Y-134037254D01*
X136688211Y-134207523D01*
X136784184Y-134360262D01*
X136911738Y-134487816D01*
X137002080Y-134544582D01*
X137060228Y-134581119D01*
X137064478Y-134583789D01*
X137234745Y-134643368D01*
X137234750Y-134643369D01*
X137413996Y-134663565D01*
X137414000Y-134663565D01*
X137414004Y-134663565D01*
X137593249Y-134643369D01*
X137593252Y-134643368D01*
X137593255Y-134643368D01*
X137763522Y-134583789D01*
X137916262Y-134487816D01*
X138043816Y-134360262D01*
X138139789Y-134207522D01*
X138199368Y-134037255D01*
X138219565Y-133858000D01*
X138211345Y-133785045D01*
X138223399Y-133716224D01*
X138270748Y-133664845D01*
X138338358Y-133647220D01*
X138404764Y-133668946D01*
X138422246Y-133683481D01*
X138809181Y-134070416D01*
X138842666Y-134131739D01*
X138845500Y-134158097D01*
X138845500Y-134799587D01*
X138825815Y-134866626D01*
X138818450Y-134876896D01*
X138816186Y-134879734D01*
X138720211Y-135032476D01*
X138660631Y-135202745D01*
X138660630Y-135202750D01*
X138640435Y-135381996D01*
X138640435Y-135382003D01*
X138660630Y-135561249D01*
X138660631Y-135561254D01*
X138720211Y-135731523D01*
X138720809Y-135732474D01*
X138816184Y-135884262D01*
X138943738Y-136011816D01*
X139096478Y-136107789D01*
X139266745Y-136167368D01*
X139266750Y-136167369D01*
X139445996Y-136187565D01*
X139446000Y-136187565D01*
X139446004Y-136187565D01*
X139625249Y-136167369D01*
X139625252Y-136167368D01*
X139625255Y-136167368D01*
X139795522Y-136107789D01*
X139948262Y-136011816D01*
X140075816Y-135884262D01*
X140171789Y-135731522D01*
X140231368Y-135561255D01*
X140251565Y-135382000D01*
X140251303Y-135379679D01*
X140231369Y-135202750D01*
X140231368Y-135202745D01*
X140171789Y-135032478D01*
X140075816Y-134879738D01*
X140075814Y-134879736D01*
X140075813Y-134879734D01*
X140073550Y-134876896D01*
X140072659Y-134874715D01*
X140072111Y-134873842D01*
X140072264Y-134873745D01*
X140047144Y-134812209D01*
X140046500Y-134799587D01*
X140046500Y-134674832D01*
X140066185Y-134607793D01*
X140118989Y-134562038D01*
X140188147Y-134552094D01*
X140251703Y-134581119D01*
X140258181Y-134587151D01*
X141342181Y-135671151D01*
X141375666Y-135732474D01*
X141378500Y-135758832D01*
X141378500Y-138616587D01*
X141358815Y-138683626D01*
X141351450Y-138693896D01*
X141349186Y-138696734D01*
X141253211Y-138849476D01*
X141193631Y-139019745D01*
X141193630Y-139019750D01*
X141173435Y-139198996D01*
X141173435Y-139199003D01*
X141193630Y-139378249D01*
X141193631Y-139378254D01*
X141253211Y-139548523D01*
X141349184Y-139701262D01*
X141476738Y-139828816D01*
X141629478Y-139924789D01*
X141799745Y-139984368D01*
X141799750Y-139984369D01*
X141978996Y-140004565D01*
X141979000Y-140004565D01*
X141979004Y-140004565D01*
X142158249Y-139984369D01*
X142158252Y-139984368D01*
X142158255Y-139984368D01*
X142328522Y-139924789D01*
X142481262Y-139828816D01*
X142608816Y-139701262D01*
X142704789Y-139548522D01*
X142764368Y-139378255D01*
X142784565Y-139199000D01*
X142764368Y-139019745D01*
X142704789Y-138849478D01*
X142608816Y-138696738D01*
X142608814Y-138696736D01*
X142608813Y-138696734D01*
X142606550Y-138693896D01*
X142605659Y-138691715D01*
X142605111Y-138690842D01*
X142605264Y-138690745D01*
X142580144Y-138629209D01*
X142579500Y-138616587D01*
X142579500Y-135547795D01*
X142579501Y-135547782D01*
X142579501Y-135379679D01*
X142538576Y-135226949D01*
X142538573Y-135226944D01*
X142459524Y-135090025D01*
X142459518Y-135090017D01*
X134240819Y-126871318D01*
X134207334Y-126809995D01*
X134204500Y-126783637D01*
X134204500Y-118144220D01*
X134224185Y-118077181D01*
X134262526Y-118039227D01*
X134360262Y-117977816D01*
X134487816Y-117850262D01*
X134583789Y-117697522D01*
X134643368Y-117527255D01*
X134651190Y-117457832D01*
X134663565Y-117348003D01*
X134663565Y-117347996D01*
X134643369Y-117168750D01*
X134643368Y-117168745D01*
X134593501Y-117026233D01*
X134583789Y-116998478D01*
X134570082Y-116976664D01*
X134542139Y-116932192D01*
X134487816Y-116845738D01*
X134360262Y-116718184D01*
X134311851Y-116687765D01*
X134265561Y-116635431D01*
X134254913Y-116566377D01*
X134283288Y-116502529D01*
X134290143Y-116495091D01*
X134458972Y-116326262D01*
X135354520Y-115430716D01*
X135433577Y-115293784D01*
X135474501Y-115141057D01*
X135474501Y-114982942D01*
X135474501Y-114975347D01*
X135474500Y-114975329D01*
X135474500Y-114045996D01*
X136100435Y-114045996D01*
X136100435Y-114046003D01*
X136120630Y-114225249D01*
X136120631Y-114225254D01*
X136180211Y-114395523D01*
X136196576Y-114421567D01*
X136276184Y-114548262D01*
X136403738Y-114675816D01*
X136431540Y-114693285D01*
X136556478Y-114771789D01*
X136688421Y-114817958D01*
X136745198Y-114858680D01*
X136770945Y-114923633D01*
X136757489Y-114992194D01*
X136709102Y-115042597D01*
X136688421Y-115052042D01*
X136556478Y-115098210D01*
X136403737Y-115194184D01*
X136276184Y-115321737D01*
X136180211Y-115474476D01*
X136120631Y-115644745D01*
X136120630Y-115644750D01*
X136100435Y-115823996D01*
X136100435Y-115824003D01*
X136120630Y-116003249D01*
X136120631Y-116003254D01*
X136180211Y-116173523D01*
X136232365Y-116256524D01*
X136254771Y-116292184D01*
X136276185Y-116326263D01*
X136278445Y-116329097D01*
X136279334Y-116331275D01*
X136279889Y-116332158D01*
X136279734Y-116332255D01*
X136304855Y-116393783D01*
X136305500Y-116406412D01*
X136305500Y-120817330D01*
X136305499Y-120817348D01*
X136305499Y-120983054D01*
X136305498Y-120983054D01*
X136309911Y-120999522D01*
X136346423Y-121135785D01*
X136346424Y-121135787D01*
X136346423Y-121135787D01*
X136354919Y-121150501D01*
X136354920Y-121150502D01*
X136425477Y-121272712D01*
X136425481Y-121272717D01*
X136544349Y-121391585D01*
X136544355Y-121391590D01*
X139381508Y-124228743D01*
X139414993Y-124290066D01*
X139417047Y-124330307D01*
X139402435Y-124459996D01*
X139402435Y-124460003D01*
X139422630Y-124639249D01*
X139422631Y-124639254D01*
X139482211Y-124809523D01*
X139578184Y-124962262D01*
X139623240Y-125007318D01*
X139656725Y-125068641D01*
X139651741Y-125138333D01*
X139623241Y-125182679D01*
X139590186Y-125215734D01*
X139494211Y-125368476D01*
X139434631Y-125538745D01*
X139434630Y-125538750D01*
X139414435Y-125717996D01*
X139414435Y-125718003D01*
X139434630Y-125897249D01*
X139434631Y-125897254D01*
X139494211Y-126067523D01*
X139590184Y-126220262D01*
X139717738Y-126347816D01*
X139870478Y-126443789D01*
X140040745Y-126503368D01*
X140069056Y-126506557D01*
X140133469Y-126533623D01*
X140173025Y-126591217D01*
X140178393Y-126615893D01*
X140184630Y-126671249D01*
X140244210Y-126841521D01*
X140256271Y-126860716D01*
X140340184Y-126994262D01*
X140467738Y-127121816D01*
X140620478Y-127217789D01*
X140790745Y-127277368D01*
X140790750Y-127277369D01*
X140969996Y-127297565D01*
X140970000Y-127297565D01*
X140970004Y-127297565D01*
X141149249Y-127277369D01*
X141149252Y-127277368D01*
X141149255Y-127277368D01*
X141319522Y-127217789D01*
X141472262Y-127121816D01*
X141472267Y-127121810D01*
X141475097Y-127119555D01*
X141477275Y-127118665D01*
X141478158Y-127118111D01*
X141478255Y-127118265D01*
X141539783Y-127093145D01*
X141552412Y-127092500D01*
X141645331Y-127092500D01*
X141645347Y-127092501D01*
X141652943Y-127092501D01*
X141811054Y-127092501D01*
X141811057Y-127092501D01*
X141963785Y-127051577D01*
X142045016Y-127004678D01*
X142100716Y-126972520D01*
X142212520Y-126860716D01*
X142212520Y-126860714D01*
X142222724Y-126850511D01*
X142222728Y-126850506D01*
X142354713Y-126718521D01*
X142354716Y-126718520D01*
X142466520Y-126606716D01*
X142516639Y-126519904D01*
X142545577Y-126469785D01*
X142586500Y-126317058D01*
X142586500Y-126158943D01*
X142586500Y-115108096D01*
X142606185Y-115041057D01*
X142622810Y-115020424D01*
X142766536Y-114876697D01*
X142827855Y-114843215D01*
X142840311Y-114841163D01*
X142927255Y-114831368D01*
X143097522Y-114771789D01*
X143250262Y-114675816D01*
X143377816Y-114548262D01*
X143473789Y-114395522D01*
X143533368Y-114225255D01*
X143546604Y-114107783D01*
X143553565Y-114046003D01*
X143553565Y-114045996D01*
X143533369Y-113866750D01*
X143533368Y-113866745D01*
X143490265Y-113743565D01*
X143473789Y-113696478D01*
X143453248Y-113663788D01*
X143392945Y-113567816D01*
X143377816Y-113543738D01*
X143250262Y-113416184D01*
X143136975Y-113345001D01*
X143097521Y-113320210D01*
X143004102Y-113287522D01*
X142927255Y-113260632D01*
X142927251Y-113260631D01*
X142924682Y-113260045D01*
X142923140Y-113259192D01*
X142920683Y-113258333D01*
X142920829Y-113257915D01*
X142864600Y-113226836D01*
X142214119Y-112576355D01*
X142214117Y-112576352D01*
X142095246Y-112457481D01*
X142095238Y-112457475D01*
X141993465Y-112398717D01*
X141993463Y-112398716D01*
X141958319Y-112378425D01*
X141958318Y-112378424D01*
X141945792Y-112375067D01*
X141805586Y-112337499D01*
X141647472Y-112337499D01*
X141639876Y-112337499D01*
X141639860Y-112337500D01*
X140536412Y-112337500D01*
X140469373Y-112317815D01*
X140459097Y-112310445D01*
X140456264Y-112308186D01*
X140456262Y-112308184D01*
X140441959Y-112299196D01*
X140411211Y-112279876D01*
X140364921Y-112227541D01*
X140354273Y-112158488D01*
X140382648Y-112094640D01*
X140389496Y-112087208D01*
X140425888Y-112050818D01*
X140487212Y-112017333D01*
X140513568Y-112014500D01*
X143568216Y-112014500D01*
X143635255Y-112034185D01*
X143655896Y-112050818D01*
X143715598Y-112110520D01*
X143788539Y-112152632D01*
X143852529Y-112189577D01*
X144005257Y-112230500D01*
X144875396Y-112230500D01*
X144942435Y-112250185D01*
X144988190Y-112302989D01*
X144998616Y-112340616D01*
X145010630Y-112447250D01*
X145010631Y-112447254D01*
X145070211Y-112617523D01*
X145166185Y-112770263D01*
X145168445Y-112773097D01*
X145169334Y-112775275D01*
X145169889Y-112776158D01*
X145169734Y-112776255D01*
X145194855Y-112837783D01*
X145195500Y-112850412D01*
X145195500Y-115936292D01*
X145175815Y-116003331D01*
X145123011Y-116049086D01*
X145112455Y-116053334D01*
X145108745Y-116054631D01*
X145108745Y-116054632D01*
X145076057Y-116066070D01*
X144938476Y-116114211D01*
X144785737Y-116210184D01*
X144658184Y-116337737D01*
X144562211Y-116490476D01*
X144502631Y-116660745D01*
X144502630Y-116660750D01*
X144482435Y-116839996D01*
X144482435Y-116840003D01*
X144502630Y-117019249D01*
X144502631Y-117019254D01*
X144562211Y-117189523D01*
X144651916Y-117332287D01*
X144658184Y-117342262D01*
X144785738Y-117469816D01*
X144824989Y-117494479D01*
X144933854Y-117562884D01*
X144938478Y-117565789D01*
X145098377Y-117621740D01*
X145108745Y-117625368D01*
X145108750Y-117625369D01*
X145287996Y-117645565D01*
X145288000Y-117645565D01*
X145288004Y-117645565D01*
X145467249Y-117625369D01*
X145467252Y-117625368D01*
X145467255Y-117625368D01*
X145637522Y-117565789D01*
X145790262Y-117469816D01*
X145917816Y-117342262D01*
X146013789Y-117189522D01*
X146073368Y-117019255D01*
X146083161Y-116932329D01*
X146110226Y-116867918D01*
X146118690Y-116858543D01*
X146154506Y-116822728D01*
X146154511Y-116822724D01*
X146164714Y-116812520D01*
X146164716Y-116812520D01*
X146276520Y-116700716D01*
X146355577Y-116563784D01*
X146389795Y-116436081D01*
X146396500Y-116411058D01*
X146396500Y-116252943D01*
X146396500Y-112850412D01*
X146416185Y-112783373D01*
X146423555Y-112773097D01*
X146425810Y-112770267D01*
X146425816Y-112770262D01*
X146521789Y-112617522D01*
X146581368Y-112447255D01*
X146581369Y-112447250D01*
X146593384Y-112340616D01*
X146620451Y-112276202D01*
X146678045Y-112236647D01*
X146716604Y-112230500D01*
X146855331Y-112230500D01*
X146855347Y-112230501D01*
X146862943Y-112230501D01*
X147021054Y-112230501D01*
X147021057Y-112230501D01*
X147173785Y-112189577D01*
X147237775Y-112152632D01*
X147310716Y-112110520D01*
X147422520Y-111998716D01*
X147422520Y-111998714D01*
X147432724Y-111988511D01*
X147432728Y-111988506D01*
X147568713Y-111852521D01*
X147568716Y-111852520D01*
X147680520Y-111740716D01*
X147730639Y-111653904D01*
X147759577Y-111603785D01*
X147800500Y-111451057D01*
X147800500Y-111292943D01*
X147800500Y-109010943D01*
X147787887Y-108963868D01*
X147759577Y-108858215D01*
X147704329Y-108762523D01*
X147680520Y-108721284D01*
X147568716Y-108609480D01*
X147568715Y-108609479D01*
X147564385Y-108605149D01*
X147564374Y-108605139D01*
X147032814Y-108073579D01*
X146999329Y-108012256D01*
X146997092Y-107973747D01*
X147005341Y-107890000D01*
X146986024Y-107693868D01*
X146928814Y-107505273D01*
X146835910Y-107331462D01*
X146835907Y-107331458D01*
X146832523Y-107326393D01*
X146834164Y-107325296D01*
X146810405Y-107269361D01*
X146822194Y-107200493D01*
X146832888Y-107183851D01*
X146832523Y-107183607D01*
X146835904Y-107178544D01*
X146835910Y-107178538D01*
X146928814Y-107004727D01*
X146986024Y-106816132D01*
X147005341Y-106620000D01*
X146986024Y-106423868D01*
X146928814Y-106235273D01*
X146835910Y-106061462D01*
X146835907Y-106061458D01*
X146832523Y-106056393D01*
X146834164Y-106055296D01*
X146810405Y-105999361D01*
X146822194Y-105930493D01*
X146832888Y-105913851D01*
X146832523Y-105913607D01*
X146835904Y-105908544D01*
X146835910Y-105908538D01*
X146928814Y-105734727D01*
X146986024Y-105546132D01*
X147005341Y-105350000D01*
X146986024Y-105153868D01*
X146928814Y-104965273D01*
X146835910Y-104791462D01*
X146835907Y-104791458D01*
X146832523Y-104786393D01*
X146834164Y-104785296D01*
X146810405Y-104729361D01*
X146822194Y-104660493D01*
X146832888Y-104643851D01*
X146832523Y-104643607D01*
X146835904Y-104638544D01*
X146835910Y-104638538D01*
X146928814Y-104464727D01*
X146986024Y-104276132D01*
X147005341Y-104080000D01*
X146986024Y-103883868D01*
X146928814Y-103695273D01*
X146835910Y-103521462D01*
X146835907Y-103521458D01*
X146832523Y-103516393D01*
X146834164Y-103515296D01*
X146810405Y-103459361D01*
X146822194Y-103390493D01*
X146832888Y-103373851D01*
X146832523Y-103373607D01*
X146835904Y-103368544D01*
X146835910Y-103368538D01*
X146928814Y-103194727D01*
X146986024Y-103006132D01*
X147005341Y-102810000D01*
X146986024Y-102613868D01*
X146928814Y-102425273D01*
X146835910Y-102251462D01*
X146835907Y-102251458D01*
X146832523Y-102246393D01*
X146834164Y-102245296D01*
X146810405Y-102189361D01*
X146822194Y-102120493D01*
X146832888Y-102103851D01*
X146832523Y-102103607D01*
X146835904Y-102098544D01*
X146835910Y-102098538D01*
X146928814Y-101924727D01*
X146986024Y-101736132D01*
X147005341Y-101540000D01*
X146986024Y-101343868D01*
X146928814Y-101155273D01*
X146835910Y-100981462D01*
X146835907Y-100981458D01*
X146832523Y-100976393D01*
X146834164Y-100975296D01*
X146810405Y-100919361D01*
X146822194Y-100850493D01*
X146832888Y-100833851D01*
X146832523Y-100833607D01*
X146835904Y-100828544D01*
X146835910Y-100828538D01*
X146928814Y-100654727D01*
X146986024Y-100466132D01*
X147005341Y-100270000D01*
X146986024Y-100073868D01*
X146928814Y-99885273D01*
X146927675Y-99883143D01*
X146856713Y-99750382D01*
X146835910Y-99711462D01*
X146835907Y-99711458D01*
X146832523Y-99706393D01*
X146834164Y-99705296D01*
X146810405Y-99649361D01*
X146822194Y-99580493D01*
X146832888Y-99563851D01*
X146832523Y-99563607D01*
X146835904Y-99558544D01*
X146835910Y-99558538D01*
X146928814Y-99384727D01*
X146986024Y-99196132D01*
X147005341Y-99000000D01*
X146986024Y-98803868D01*
X146928814Y-98615273D01*
X146928811Y-98615269D01*
X146928811Y-98615266D01*
X146835913Y-98441467D01*
X146835909Y-98441460D01*
X146710883Y-98289116D01*
X146558539Y-98164090D01*
X146558532Y-98164086D01*
X146384733Y-98071188D01*
X146384727Y-98071186D01*
X146196132Y-98013976D01*
X146196129Y-98013975D01*
X146000000Y-97994659D01*
X145803870Y-98013975D01*
X145674462Y-98053231D01*
X145615273Y-98071186D01*
X145615272Y-98071186D01*
X145615267Y-98071188D01*
X145613143Y-98072324D01*
X145611898Y-98072583D01*
X145609641Y-98073518D01*
X145609463Y-98073089D01*
X145544740Y-98086564D01*
X145480382Y-98062231D01*
X145472331Y-98056204D01*
X145472328Y-98056202D01*
X145337482Y-98005908D01*
X145337483Y-98005908D01*
X145277883Y-97999501D01*
X145277881Y-97999500D01*
X145277873Y-97999500D01*
X145277864Y-97999500D01*
X144182129Y-97999500D01*
X144182123Y-97999501D01*
X144122516Y-98005908D01*
X143987671Y-98056202D01*
X143987664Y-98056206D01*
X143872455Y-98142452D01*
X143872452Y-98142455D01*
X143786206Y-98257664D01*
X143786202Y-98257671D01*
X143735908Y-98392517D01*
X143729501Y-98452116D01*
X143729500Y-98452135D01*
X143729500Y-99547870D01*
X143729501Y-99547876D01*
X143735908Y-99607483D01*
X143786202Y-99742328D01*
X143786204Y-99742331D01*
X143792231Y-99750382D01*
X143816648Y-99815846D01*
X143803105Y-99879470D01*
X143803518Y-99879641D01*
X143802595Y-99881869D01*
X143802324Y-99883143D01*
X143801188Y-99885267D01*
X143743975Y-100073870D01*
X143724659Y-100270000D01*
X143743975Y-100466129D01*
X143801188Y-100654733D01*
X143894086Y-100828532D01*
X143897473Y-100833601D01*
X143895836Y-100834694D01*
X143919596Y-100890663D01*
X143907795Y-100959529D01*
X143897109Y-100976156D01*
X143897473Y-100976399D01*
X143894086Y-100981467D01*
X143801188Y-101155266D01*
X143743975Y-101343870D01*
X143724659Y-101540000D01*
X143743975Y-101736129D01*
X143801188Y-101924733D01*
X143894086Y-102098532D01*
X143897473Y-102103601D01*
X143895836Y-102104694D01*
X143919596Y-102160663D01*
X143907795Y-102229529D01*
X143897109Y-102246156D01*
X143897473Y-102246399D01*
X143894086Y-102251467D01*
X143801188Y-102425266D01*
X143743975Y-102613870D01*
X143724659Y-102810000D01*
X143743975Y-103006129D01*
X143801188Y-103194733D01*
X143894086Y-103368532D01*
X143897473Y-103373601D01*
X143895836Y-103374694D01*
X143919596Y-103430663D01*
X143907795Y-103499529D01*
X143897109Y-103516156D01*
X143897473Y-103516399D01*
X143894086Y-103521467D01*
X143801188Y-103695266D01*
X143743975Y-103883870D01*
X143724659Y-104080000D01*
X143743975Y-104276129D01*
X143743976Y-104276132D01*
X143796763Y-104450148D01*
X143801188Y-104464733D01*
X143894086Y-104638532D01*
X143897473Y-104643601D01*
X143895836Y-104644694D01*
X143919596Y-104700663D01*
X143907795Y-104769529D01*
X143897109Y-104786156D01*
X143897473Y-104786399D01*
X143894086Y-104791467D01*
X143801188Y-104965266D01*
X143743975Y-105153870D01*
X143724659Y-105350000D01*
X143743975Y-105546129D01*
X143801188Y-105734733D01*
X143894086Y-105908532D01*
X143897473Y-105913601D01*
X143895836Y-105914694D01*
X143919596Y-105970663D01*
X143907795Y-106039529D01*
X143897109Y-106056156D01*
X143897473Y-106056399D01*
X143894086Y-106061467D01*
X143801188Y-106235266D01*
X143743975Y-106423870D01*
X143724659Y-106620000D01*
X143743975Y-106816129D01*
X143801188Y-107004733D01*
X143894086Y-107178532D01*
X143897473Y-107183601D01*
X143895836Y-107184694D01*
X143919596Y-107240663D01*
X143907795Y-107309529D01*
X143897109Y-107326156D01*
X143897473Y-107326399D01*
X143894086Y-107331467D01*
X143801188Y-107505266D01*
X143743975Y-107693870D01*
X143724659Y-107890000D01*
X143743975Y-108086129D01*
X143801188Y-108274733D01*
X143894086Y-108448532D01*
X143897473Y-108453601D01*
X143895836Y-108454694D01*
X143919596Y-108510663D01*
X143907795Y-108579529D01*
X143897109Y-108596156D01*
X143897473Y-108596399D01*
X143894086Y-108601467D01*
X143801188Y-108775266D01*
X143801186Y-108775273D01*
X143743976Y-108963868D01*
X143731768Y-109087816D01*
X143724659Y-109160000D01*
X143743975Y-109356129D01*
X143801188Y-109544733D01*
X143894086Y-109718532D01*
X143897473Y-109723601D01*
X143895955Y-109724615D01*
X143919918Y-109781042D01*
X143908124Y-109849909D01*
X143897515Y-109866420D01*
X143897893Y-109866673D01*
X143894505Y-109871742D01*
X143801651Y-110045460D01*
X143744468Y-110233967D01*
X143737802Y-110301654D01*
X143711641Y-110366442D01*
X143654606Y-110406800D01*
X143614399Y-110413500D01*
X140024670Y-110413500D01*
X140024654Y-110413499D01*
X140017058Y-110413499D01*
X139858943Y-110413499D01*
X139797362Y-110430000D01*
X139706214Y-110454423D01*
X139706209Y-110454426D01*
X139569290Y-110533475D01*
X139569282Y-110533481D01*
X136887465Y-113215298D01*
X136826142Y-113248783D01*
X136813668Y-113250837D01*
X136726750Y-113260630D01*
X136556478Y-113320210D01*
X136403737Y-113416184D01*
X136276184Y-113543737D01*
X136180211Y-113696476D01*
X136120631Y-113866745D01*
X136120630Y-113866750D01*
X136100435Y-114045996D01*
X135474500Y-114045996D01*
X135474500Y-110536097D01*
X135494185Y-110469058D01*
X135510819Y-110448416D01*
X136088352Y-109870883D01*
X136670536Y-109288698D01*
X136731857Y-109255215D01*
X136744310Y-109253163D01*
X136831255Y-109243368D01*
X137001522Y-109183789D01*
X137154262Y-109087816D01*
X137281816Y-108960262D01*
X137377789Y-108807522D01*
X137437368Y-108637255D01*
X137437369Y-108637249D01*
X137457565Y-108458003D01*
X137457565Y-108457996D01*
X137437369Y-108278750D01*
X137437368Y-108278745D01*
X137377788Y-108108476D01*
X137281815Y-107955737D01*
X137154262Y-107828184D01*
X137001523Y-107732211D01*
X136831254Y-107672631D01*
X136831249Y-107672630D01*
X136652004Y-107652435D01*
X136651996Y-107652435D01*
X136472750Y-107672630D01*
X136472745Y-107672631D01*
X136302476Y-107732211D01*
X136149737Y-107828184D01*
X136022184Y-107955737D01*
X135926210Y-108108478D01*
X135866630Y-108278750D01*
X135856837Y-108365667D01*
X135829770Y-108430081D01*
X135821298Y-108439464D01*
X134670181Y-109590582D01*
X134608858Y-109624067D01*
X134539166Y-109619083D01*
X134483233Y-109577211D01*
X134458816Y-109511747D01*
X134458500Y-109502901D01*
X134458500Y-97202945D01*
X134458498Y-97202936D01*
X134453644Y-97184818D01*
X134417577Y-97050215D01*
X134417573Y-97050208D01*
X134416710Y-97048123D01*
X134408049Y-97014548D01*
X134389369Y-96848750D01*
X134389368Y-96848745D01*
X134329788Y-96678476D01*
X134233815Y-96525737D01*
X134106259Y-96398181D01*
X134057852Y-96367766D01*
X134011560Y-96315432D01*
X134000911Y-96246378D01*
X134029286Y-96182530D01*
X134036130Y-96175103D01*
X134384535Y-95826698D01*
X134445856Y-95793215D01*
X134458311Y-95791163D01*
X134545255Y-95781368D01*
X134715522Y-95721789D01*
X134868262Y-95625816D01*
X134995816Y-95498262D01*
X135091789Y-95345522D01*
X135151368Y-95175255D01*
X135163143Y-95070750D01*
X135171565Y-94996003D01*
X135171565Y-94995996D01*
X135151369Y-94816750D01*
X135151368Y-94816745D01*
X135091788Y-94646476D01*
X135001172Y-94502262D01*
X134995816Y-94493738D01*
X134868262Y-94366184D01*
X134841745Y-94349522D01*
X134715523Y-94270211D01*
X134545254Y-94210631D01*
X134545249Y-94210630D01*
X134366004Y-94190435D01*
X134365996Y-94190435D01*
X134186750Y-94210630D01*
X134186745Y-94210631D01*
X134016476Y-94270211D01*
X133863737Y-94366184D01*
X133736182Y-94493739D01*
X133706153Y-94541531D01*
X133653818Y-94587822D01*
X133584765Y-94598469D01*
X133535188Y-94580552D01*
X133445523Y-94524211D01*
X133275254Y-94464631D01*
X133275249Y-94464630D01*
X133096004Y-94444435D01*
X133095996Y-94444435D01*
X132916750Y-94464630D01*
X132916745Y-94464631D01*
X132746476Y-94524211D01*
X132593737Y-94620184D01*
X132466184Y-94747737D01*
X132370210Y-94900478D01*
X132310630Y-95070750D01*
X132300837Y-95157667D01*
X132273770Y-95222081D01*
X132265298Y-95231464D01*
X124307415Y-103189349D01*
X124195610Y-103301153D01*
X124195609Y-103301155D01*
X124153639Y-103373851D01*
X124145490Y-103387965D01*
X124145488Y-103387967D01*
X124116554Y-103438080D01*
X124116553Y-103438081D01*
X124116552Y-103438086D01*
X124075628Y-103590814D01*
X124075628Y-103590816D01*
X124075628Y-103758917D01*
X124075629Y-103758930D01*
X124075629Y-104383109D01*
X124055944Y-104450148D01*
X124003140Y-104495903D01*
X123933982Y-104505847D01*
X123885657Y-104488103D01*
X123793523Y-104430211D01*
X123623254Y-104370631D01*
X123623250Y-104370630D01*
X123542616Y-104361545D01*
X123478202Y-104334478D01*
X123438647Y-104276883D01*
X123432500Y-104238325D01*
X123432500Y-94742182D01*
X123452185Y-94675143D01*
X123490528Y-94637188D01*
X123502262Y-94629816D01*
X123629816Y-94502262D01*
X123725789Y-94349522D01*
X123785368Y-94179255D01*
X123805565Y-94000000D01*
X123801340Y-93962505D01*
X123785369Y-93820750D01*
X123785368Y-93820745D01*
X123740295Y-93691935D01*
X123725789Y-93650478D01*
X123629816Y-93497738D01*
X123502262Y-93370184D01*
X123349523Y-93274211D01*
X123179254Y-93214631D01*
X123179249Y-93214630D01*
X123000004Y-93194435D01*
X122999996Y-93194435D01*
X122820750Y-93214630D01*
X122820745Y-93214631D01*
X122650476Y-93274211D01*
X122497737Y-93370184D01*
X122370184Y-93497737D01*
X122274211Y-93650478D01*
X122271188Y-93656756D01*
X122269366Y-93655878D01*
X122246694Y-93691935D01*
X122099051Y-93839580D01*
X122099047Y-93839585D01*
X122049812Y-93913271D01*
X122016921Y-93962496D01*
X122016914Y-93962508D01*
X121960342Y-94099086D01*
X121960340Y-94099092D01*
X121931500Y-94244079D01*
X121931500Y-109555500D01*
X121911815Y-109622539D01*
X121859011Y-109668294D01*
X121807500Y-109679500D01*
X117055126Y-109679500D01*
X116988087Y-109659815D01*
X116942332Y-109607011D01*
X116932388Y-109537853D01*
X116936465Y-109519505D01*
X116941502Y-109502901D01*
X116986024Y-109356132D01*
X117005341Y-109160000D01*
X116986024Y-108963868D01*
X116928814Y-108775273D01*
X116921998Y-108762522D01*
X116899956Y-108721284D01*
X116835910Y-108601462D01*
X116835907Y-108601458D01*
X116832523Y-108596393D01*
X116834164Y-108595296D01*
X116810405Y-108539361D01*
X116822194Y-108470493D01*
X116832888Y-108453851D01*
X116832523Y-108453607D01*
X116835904Y-108448544D01*
X116835910Y-108448538D01*
X116928814Y-108274727D01*
X116986024Y-108086132D01*
X117005341Y-107890000D01*
X116986024Y-107693868D01*
X116928814Y-107505273D01*
X116835910Y-107331462D01*
X116835907Y-107331458D01*
X116832523Y-107326393D01*
X116834164Y-107325296D01*
X116810405Y-107269361D01*
X116822194Y-107200493D01*
X116832888Y-107183851D01*
X116832523Y-107183607D01*
X116835904Y-107178544D01*
X116835910Y-107178538D01*
X116928814Y-107004727D01*
X116986024Y-106816132D01*
X117005341Y-106620000D01*
X116986024Y-106423868D01*
X116928814Y-106235273D01*
X116835910Y-106061462D01*
X116835907Y-106061458D01*
X116832523Y-106056393D01*
X116834164Y-106055296D01*
X116810405Y-105999361D01*
X116822194Y-105930493D01*
X116832888Y-105913851D01*
X116832523Y-105913607D01*
X116835904Y-105908544D01*
X116835910Y-105908538D01*
X116928814Y-105734727D01*
X116986024Y-105546132D01*
X117005341Y-105350000D01*
X116986024Y-105153868D01*
X116928814Y-104965273D01*
X116835910Y-104791462D01*
X116835907Y-104791458D01*
X116832523Y-104786393D01*
X116834164Y-104785296D01*
X116810405Y-104729361D01*
X116822194Y-104660493D01*
X116832888Y-104643851D01*
X116832523Y-104643607D01*
X116835904Y-104638544D01*
X116835910Y-104638538D01*
X116928814Y-104464727D01*
X116986024Y-104276132D01*
X117005341Y-104080000D01*
X116986024Y-103883868D01*
X116928814Y-103695273D01*
X116835910Y-103521462D01*
X116835907Y-103521458D01*
X116832523Y-103516393D01*
X116834164Y-103515296D01*
X116810405Y-103459361D01*
X116822194Y-103390493D01*
X116832888Y-103373851D01*
X116832523Y-103373607D01*
X116835904Y-103368544D01*
X116835910Y-103368538D01*
X116928814Y-103194727D01*
X116986024Y-103006132D01*
X117005341Y-102810000D01*
X116986024Y-102613868D01*
X116928814Y-102425273D01*
X116835910Y-102251462D01*
X116835907Y-102251458D01*
X116832523Y-102246393D01*
X116834164Y-102245296D01*
X116810405Y-102189361D01*
X116822194Y-102120493D01*
X116832888Y-102103851D01*
X116832523Y-102103607D01*
X116835904Y-102098544D01*
X116835910Y-102098538D01*
X116928814Y-101924727D01*
X116986024Y-101736132D01*
X117005341Y-101540000D01*
X116986024Y-101343868D01*
X116928814Y-101155273D01*
X116835910Y-100981462D01*
X116835907Y-100981458D01*
X116832523Y-100976393D01*
X116834164Y-100975296D01*
X116810405Y-100919361D01*
X116822194Y-100850493D01*
X116832888Y-100833851D01*
X116832523Y-100833607D01*
X116835904Y-100828544D01*
X116835910Y-100828538D01*
X116928814Y-100654727D01*
X116986024Y-100466132D01*
X117005341Y-100270000D01*
X116986024Y-100073868D01*
X116928814Y-99885273D01*
X116927675Y-99883143D01*
X116856713Y-99750382D01*
X116835910Y-99711462D01*
X116835907Y-99711458D01*
X116832523Y-99706393D01*
X116834164Y-99705296D01*
X116810405Y-99649361D01*
X116822194Y-99580493D01*
X116832888Y-99563851D01*
X116832523Y-99563607D01*
X116835904Y-99558544D01*
X116835910Y-99558538D01*
X116928814Y-99384727D01*
X116986024Y-99196132D01*
X117005341Y-99000000D01*
X116986024Y-98803868D01*
X116928814Y-98615273D01*
X116928811Y-98615269D01*
X116928811Y-98615266D01*
X116835913Y-98441467D01*
X116835909Y-98441460D01*
X116710883Y-98289116D01*
X116558539Y-98164090D01*
X116558532Y-98164086D01*
X116384733Y-98071188D01*
X116384727Y-98071186D01*
X116196132Y-98013976D01*
X116196129Y-98013975D01*
X116000000Y-97994659D01*
X115803870Y-98013975D01*
X115674462Y-98053231D01*
X115615273Y-98071186D01*
X115615272Y-98071186D01*
X115615267Y-98071188D01*
X115613143Y-98072324D01*
X115611898Y-98072583D01*
X115609641Y-98073518D01*
X115609463Y-98073089D01*
X115544740Y-98086564D01*
X115480382Y-98062231D01*
X115472331Y-98056204D01*
X115472328Y-98056202D01*
X115337482Y-98005908D01*
X115337483Y-98005908D01*
X115277883Y-97999501D01*
X115277881Y-97999500D01*
X115277873Y-97999500D01*
X115277864Y-97999500D01*
X114182129Y-97999500D01*
X114182123Y-97999501D01*
X114122516Y-98005908D01*
X113987671Y-98056202D01*
X113987664Y-98056206D01*
X113872455Y-98142452D01*
X113872452Y-98142455D01*
X113786206Y-98257664D01*
X113786202Y-98257671D01*
X113735908Y-98392517D01*
X113729501Y-98452116D01*
X113729500Y-98452135D01*
X113729500Y-99547870D01*
X113729501Y-99547876D01*
X113735908Y-99607483D01*
X113786202Y-99742328D01*
X113786204Y-99742331D01*
X113792231Y-99750382D01*
X113816648Y-99815846D01*
X113803105Y-99879470D01*
X113803518Y-99879641D01*
X113802595Y-99881869D01*
X113802324Y-99883143D01*
X113801188Y-99885267D01*
X113743975Y-100073870D01*
X113724659Y-100270000D01*
X110475374Y-100270000D01*
X110475374Y-91124000D01*
X110495059Y-91056961D01*
X110547863Y-91011206D01*
X110599374Y-91000000D01*
X149399570Y-91000000D01*
X149466609Y-91019685D01*
G37*
%TD.AperFunction*%
%TD*%
M02*
