%TF.GenerationSoftware,KiCad,Pcbnew,8.0.6*%
%TF.CreationDate,2025-01-30T17:26:38+11:00*%
%TF.ProjectId,ESP32-DWM1000-local,45535033-322d-4445-974d-313030302d6c,rev?*%
%TF.SameCoordinates,Original*%
%TF.FileFunction,Legend,Bot*%
%TF.FilePolarity,Positive*%
%FSLAX46Y46*%
G04 Gerber Fmt 4.6, Leading zero omitted, Abs format (unit mm)*
G04 Created by KiCad (PCBNEW 8.0.6) date 2025-01-30 17:26:38*
%MOMM*%
%LPD*%
G01*
G04 APERTURE LIST*
%ADD10C,0.254000*%
%ADD11C,0.700000*%
%ADD12O,2.000000X1.100000*%
%ADD13O,1.800000X1.200000*%
%ADD14R,1.000000X1.000000*%
%ADD15O,1.000000X1.000000*%
%ADD16C,3.200000*%
G04 APERTURE END LIST*
D10*
X139121944Y-105383581D02*
X140936230Y-105383581D01*
X140936230Y-105383581D02*
X141299087Y-105262628D01*
X141299087Y-105262628D02*
X141540992Y-105020724D01*
X141540992Y-105020724D02*
X141661944Y-104657866D01*
X141661944Y-104657866D02*
X141661944Y-104415962D01*
X141661944Y-107681676D02*
X140331468Y-107681676D01*
X140331468Y-107681676D02*
X140089563Y-107560723D01*
X140089563Y-107560723D02*
X139968611Y-107318819D01*
X139968611Y-107318819D02*
X139968611Y-106835009D01*
X139968611Y-106835009D02*
X140089563Y-106593104D01*
X141540992Y-107681676D02*
X141661944Y-107439771D01*
X141661944Y-107439771D02*
X141661944Y-106835009D01*
X141661944Y-106835009D02*
X141540992Y-106593104D01*
X141540992Y-106593104D02*
X141299087Y-106472152D01*
X141299087Y-106472152D02*
X141057182Y-106472152D01*
X141057182Y-106472152D02*
X140815277Y-106593104D01*
X140815277Y-106593104D02*
X140694325Y-106835009D01*
X140694325Y-106835009D02*
X140694325Y-107439771D01*
X140694325Y-107439771D02*
X140573372Y-107681676D01*
X141540992Y-109979771D02*
X141661944Y-109737866D01*
X141661944Y-109737866D02*
X141661944Y-109254057D01*
X141661944Y-109254057D02*
X141540992Y-109012152D01*
X141540992Y-109012152D02*
X141420039Y-108891199D01*
X141420039Y-108891199D02*
X141178134Y-108770247D01*
X141178134Y-108770247D02*
X140452420Y-108770247D01*
X140452420Y-108770247D02*
X140210515Y-108891199D01*
X140210515Y-108891199D02*
X140089563Y-109012152D01*
X140089563Y-109012152D02*
X139968611Y-109254057D01*
X139968611Y-109254057D02*
X139968611Y-109737866D01*
X139968611Y-109737866D02*
X140089563Y-109979771D01*
X141661944Y-111068342D02*
X139121944Y-111068342D01*
X140694325Y-111310247D02*
X141661944Y-112035961D01*
X139968611Y-112035961D02*
X140936230Y-111068342D01*
X140331468Y-115906437D02*
X140331468Y-115059770D01*
X141661944Y-115059770D02*
X139121944Y-115059770D01*
X139121944Y-115059770D02*
X139121944Y-116269294D01*
X141661944Y-117236913D02*
X139968611Y-117236913D01*
X140452420Y-117236913D02*
X140210515Y-117357866D01*
X140210515Y-117357866D02*
X140089563Y-117478818D01*
X140089563Y-117478818D02*
X139968611Y-117720723D01*
X139968611Y-117720723D02*
X139968611Y-117962628D01*
X141661944Y-119172152D02*
X141540992Y-118930247D01*
X141540992Y-118930247D02*
X141420039Y-118809294D01*
X141420039Y-118809294D02*
X141178134Y-118688342D01*
X141178134Y-118688342D02*
X140452420Y-118688342D01*
X140452420Y-118688342D02*
X140210515Y-118809294D01*
X140210515Y-118809294D02*
X140089563Y-118930247D01*
X140089563Y-118930247D02*
X139968611Y-119172152D01*
X139968611Y-119172152D02*
X139968611Y-119535009D01*
X139968611Y-119535009D02*
X140089563Y-119776913D01*
X140089563Y-119776913D02*
X140210515Y-119897866D01*
X140210515Y-119897866D02*
X140452420Y-120018818D01*
X140452420Y-120018818D02*
X141178134Y-120018818D01*
X141178134Y-120018818D02*
X141420039Y-119897866D01*
X141420039Y-119897866D02*
X141540992Y-119776913D01*
X141540992Y-119776913D02*
X141661944Y-119535009D01*
X141661944Y-119535009D02*
X141661944Y-119172152D01*
X141661944Y-121107389D02*
X139968611Y-121107389D01*
X140210515Y-121107389D02*
X140089563Y-121228342D01*
X140089563Y-121228342D02*
X139968611Y-121470247D01*
X139968611Y-121470247D02*
X139968611Y-121833104D01*
X139968611Y-121833104D02*
X140089563Y-122075008D01*
X140089563Y-122075008D02*
X140331468Y-122195961D01*
X140331468Y-122195961D02*
X141661944Y-122195961D01*
X140331468Y-122195961D02*
X140089563Y-122316913D01*
X140089563Y-122316913D02*
X139968611Y-122558818D01*
X139968611Y-122558818D02*
X139968611Y-122921675D01*
X139968611Y-122921675D02*
X140089563Y-123163580D01*
X140089563Y-123163580D02*
X140331468Y-123284532D01*
X140331468Y-123284532D02*
X141661944Y-123284532D01*
X141540992Y-126308342D02*
X141661944Y-126671199D01*
X141661944Y-126671199D02*
X141661944Y-127275961D01*
X141661944Y-127275961D02*
X141540992Y-127517866D01*
X141540992Y-127517866D02*
X141420039Y-127638818D01*
X141420039Y-127638818D02*
X141178134Y-127759771D01*
X141178134Y-127759771D02*
X140936230Y-127759771D01*
X140936230Y-127759771D02*
X140694325Y-127638818D01*
X140694325Y-127638818D02*
X140573372Y-127517866D01*
X140573372Y-127517866D02*
X140452420Y-127275961D01*
X140452420Y-127275961D02*
X140331468Y-126792152D01*
X140331468Y-126792152D02*
X140210515Y-126550247D01*
X140210515Y-126550247D02*
X140089563Y-126429294D01*
X140089563Y-126429294D02*
X139847658Y-126308342D01*
X139847658Y-126308342D02*
X139605753Y-126308342D01*
X139605753Y-126308342D02*
X139363849Y-126429294D01*
X139363849Y-126429294D02*
X139242896Y-126550247D01*
X139242896Y-126550247D02*
X139121944Y-126792152D01*
X139121944Y-126792152D02*
X139121944Y-127396913D01*
X139121944Y-127396913D02*
X139242896Y-127759771D01*
X141540992Y-129936914D02*
X141661944Y-129695009D01*
X141661944Y-129695009D02*
X141661944Y-129211200D01*
X141661944Y-129211200D02*
X141540992Y-128969295D01*
X141540992Y-128969295D02*
X141420039Y-128848342D01*
X141420039Y-128848342D02*
X141178134Y-128727390D01*
X141178134Y-128727390D02*
X140452420Y-128727390D01*
X140452420Y-128727390D02*
X140210515Y-128848342D01*
X140210515Y-128848342D02*
X140089563Y-128969295D01*
X140089563Y-128969295D02*
X139968611Y-129211200D01*
X139968611Y-129211200D02*
X139968611Y-129695009D01*
X139968611Y-129695009D02*
X140089563Y-129936914D01*
X141661944Y-131025485D02*
X139968611Y-131025485D01*
X140452420Y-131025485D02*
X140210515Y-131146438D01*
X140210515Y-131146438D02*
X140089563Y-131267390D01*
X140089563Y-131267390D02*
X139968611Y-131509295D01*
X139968611Y-131509295D02*
X139968611Y-131751200D01*
X141661944Y-133686438D02*
X140331468Y-133686438D01*
X140331468Y-133686438D02*
X140089563Y-133565485D01*
X140089563Y-133565485D02*
X139968611Y-133323581D01*
X139968611Y-133323581D02*
X139968611Y-132839771D01*
X139968611Y-132839771D02*
X140089563Y-132597866D01*
X141540992Y-133686438D02*
X141661944Y-133444533D01*
X141661944Y-133444533D02*
X141661944Y-132839771D01*
X141661944Y-132839771D02*
X141540992Y-132597866D01*
X141540992Y-132597866D02*
X141299087Y-132476914D01*
X141299087Y-132476914D02*
X141057182Y-132476914D01*
X141057182Y-132476914D02*
X140815277Y-132597866D01*
X140815277Y-132597866D02*
X140694325Y-132839771D01*
X140694325Y-132839771D02*
X140694325Y-133444533D01*
X140694325Y-133444533D02*
X140573372Y-133686438D01*
X139968611Y-134533104D02*
X139968611Y-135500723D01*
X139121944Y-134895961D02*
X141299087Y-134895961D01*
X141299087Y-134895961D02*
X141540992Y-135016914D01*
X141540992Y-135016914D02*
X141661944Y-135258819D01*
X141661944Y-135258819D02*
X141661944Y-135500723D01*
X141540992Y-137435962D02*
X141661944Y-137194057D01*
X141661944Y-137194057D02*
X141661944Y-136710248D01*
X141661944Y-136710248D02*
X141540992Y-136468343D01*
X141540992Y-136468343D02*
X141420039Y-136347390D01*
X141420039Y-136347390D02*
X141178134Y-136226438D01*
X141178134Y-136226438D02*
X140452420Y-136226438D01*
X140452420Y-136226438D02*
X140210515Y-136347390D01*
X140210515Y-136347390D02*
X140089563Y-136468343D01*
X140089563Y-136468343D02*
X139968611Y-136710248D01*
X139968611Y-136710248D02*
X139968611Y-137194057D01*
X139968611Y-137194057D02*
X140089563Y-137435962D01*
X141661944Y-138524533D02*
X139121944Y-138524533D01*
X141661944Y-139613105D02*
X140331468Y-139613105D01*
X140331468Y-139613105D02*
X140089563Y-139492152D01*
X140089563Y-139492152D02*
X139968611Y-139250248D01*
X139968611Y-139250248D02*
X139968611Y-138887391D01*
X139968611Y-138887391D02*
X140089563Y-138645486D01*
X140089563Y-138645486D02*
X140210515Y-138524533D01*
X139363849Y-142636914D02*
X139242896Y-142757866D01*
X139242896Y-142757866D02*
X139121944Y-142999771D01*
X139121944Y-142999771D02*
X139121944Y-143604533D01*
X139121944Y-143604533D02*
X139242896Y-143846438D01*
X139242896Y-143846438D02*
X139363849Y-143967390D01*
X139363849Y-143967390D02*
X139605753Y-144088343D01*
X139605753Y-144088343D02*
X139847658Y-144088343D01*
X139847658Y-144088343D02*
X140210515Y-143967390D01*
X140210515Y-143967390D02*
X141661944Y-142515962D01*
X141661944Y-142515962D02*
X141661944Y-144088343D01*
X139121944Y-145660724D02*
X139121944Y-145902629D01*
X139121944Y-145902629D02*
X139242896Y-146144533D01*
X139242896Y-146144533D02*
X139363849Y-146265486D01*
X139363849Y-146265486D02*
X139605753Y-146386438D01*
X139605753Y-146386438D02*
X140089563Y-146507391D01*
X140089563Y-146507391D02*
X140694325Y-146507391D01*
X140694325Y-146507391D02*
X141178134Y-146386438D01*
X141178134Y-146386438D02*
X141420039Y-146265486D01*
X141420039Y-146265486D02*
X141540992Y-146144533D01*
X141540992Y-146144533D02*
X141661944Y-145902629D01*
X141661944Y-145902629D02*
X141661944Y-145660724D01*
X141661944Y-145660724D02*
X141540992Y-145418819D01*
X141540992Y-145418819D02*
X141420039Y-145297867D01*
X141420039Y-145297867D02*
X141178134Y-145176914D01*
X141178134Y-145176914D02*
X140694325Y-145055962D01*
X140694325Y-145055962D02*
X140089563Y-145055962D01*
X140089563Y-145055962D02*
X139605753Y-145176914D01*
X139605753Y-145176914D02*
X139363849Y-145297867D01*
X139363849Y-145297867D02*
X139242896Y-145418819D01*
X139242896Y-145418819D02*
X139121944Y-145660724D01*
X139363849Y-147475010D02*
X139242896Y-147595962D01*
X139242896Y-147595962D02*
X139121944Y-147837867D01*
X139121944Y-147837867D02*
X139121944Y-148442629D01*
X139121944Y-148442629D02*
X139242896Y-148684534D01*
X139242896Y-148684534D02*
X139363849Y-148805486D01*
X139363849Y-148805486D02*
X139605753Y-148926439D01*
X139605753Y-148926439D02*
X139847658Y-148926439D01*
X139847658Y-148926439D02*
X140210515Y-148805486D01*
X140210515Y-148805486D02*
X141661944Y-147354058D01*
X141661944Y-147354058D02*
X141661944Y-148926439D01*
X139968611Y-151103582D02*
X141661944Y-151103582D01*
X139000992Y-150498820D02*
X140815277Y-149894058D01*
X140815277Y-149894058D02*
X140815277Y-151466439D01*
%LPC*%
D11*
%TO.C,USB1*%
X115180000Y-117110000D03*
X115180000Y-122890000D03*
D12*
X115710000Y-115680000D03*
D13*
X111500000Y-115680000D03*
D12*
X115710000Y-124320000D03*
D13*
X111500000Y-124320000D03*
%TD*%
D14*
%TO.C,J2*%
X144730000Y-99000000D03*
D15*
X146000000Y-99000000D03*
X144730000Y-100270000D03*
X146000000Y-100270000D03*
X144730000Y-101540000D03*
X146000000Y-101540000D03*
X144730000Y-102810000D03*
X146000000Y-102810000D03*
X144730000Y-104080000D03*
X146000000Y-104080000D03*
X144730000Y-105350000D03*
X146000000Y-105350000D03*
X144730000Y-106620000D03*
X146000000Y-106620000D03*
X144730000Y-107890000D03*
X146000000Y-107890000D03*
X144730000Y-109160000D03*
X146000000Y-109160000D03*
X144730000Y-110430000D03*
X146000000Y-110430000D03*
%TD*%
D16*
%TO.C,H1*%
X146500000Y-88500000D03*
%TD*%
%TO.C,H3*%
X146500000Y-151500000D03*
%TD*%
%TO.C,H2*%
X113474873Y-88474873D03*
%TD*%
D14*
%TO.C,J1*%
X114730000Y-99000000D03*
D15*
X116000000Y-99000000D03*
X114730000Y-100270000D03*
X116000000Y-100270000D03*
X114730000Y-101540000D03*
X116000000Y-101540000D03*
X114730000Y-102810000D03*
X116000000Y-102810000D03*
X114730000Y-104080000D03*
X116000000Y-104080000D03*
X114730000Y-105350000D03*
X116000000Y-105350000D03*
X114730000Y-106620000D03*
X116000000Y-106620000D03*
X114730000Y-107890000D03*
X116000000Y-107890000D03*
X114730000Y-109160000D03*
X116000000Y-109160000D03*
X114730000Y-110430000D03*
X116000000Y-110430000D03*
%TD*%
D16*
%TO.C,H4*%
X113500000Y-151500000D03*
%TD*%
%LPD*%
M02*
